<svg xmlns="http://www.w3.org/2000/svg" viewBox="0 0 224.19 89.26"><defs><style>.cls-1{fill:#fff;}</style></defs><title>Asset 1</title><g id="Layer_2" data-name="Layer 2"><g id="Layer_1-2" data-name="Layer 1"><path class="cls-1" d="M100.2,68.91c1.2-1.26,2.58-2.64,3.66-4a49.94,49.94,0,0,0,3.78-4.14c.54-.6,1.08-1.2,1.56-1.8a5.79,5.79,0,0,1,1.74-1.68c.24.84-.9,1.14-.78,2.22a5,5,0,0,0-1,1.56A9.83,9.83,0,0,1,108,62.67c-.36.54-1,1-1.32,1.5-.06.12-.06.3-.12.48a15.31,15.31,0,0,1-1.32,1.56,15.85,15.85,0,0,0-1.32,1.5c-.12.18-.06.42-.18.6s-.36.36-.54.6c-.42.6-1.08,1.08-1.5,1.74a2.51,2.51,0,0,1-.24.9c-.24.12-.48.42-.78.6a6.07,6.07,0,0,1-1.38.42c-.24-.06-.3-.3-.54-.36a2,2,0,0,0-.6,0c-.84-.06-2-.36-2.22-1a11,11,0,0,1,.6-4.68c.06-.18.24-.3.3-.48A23.15,23.15,0,0,1,98,63c.48-1,.9-2,1.32-3-.24.06-.36.3-.54.48a7.56,7.56,0,0,0-.72,1,8.51,8.51,0,0,0-1.2,1.32c-.06.06-.06.24-.12.36s-.42.42-.6.66c-.36.54-.78,1.2-1.26,1.8-.84,1.2-1.74,2.28-2.64,3.54A12.35,12.35,0,0,0,91,70.89a5,5,0,0,1-.12.6A3,3,0,0,1,89.1,73c-.24-.06-.42-.3-.6-.36-.84-.3-2.16-.3-2.58-1.14a17.47,17.47,0,0,1,.12-3.9c.3-1,.78-2,1.14-3a20.75,20.75,0,0,1,1.2-2.88c.48-.84,1.08-1.68,1.62-2.46,1.14-1.68,1.8-2.94,3.54-4a10.41,10.41,0,0,1,1.14-.6c.72-.42,1.32-.66,2.1-1.08a26.74,26.74,0,0,0,3.48,1.62,2.53,2.53,0,0,0,.84.72,9.87,9.87,0,0,0,1.14-2.4c.72-1.62,1.5-3.24,2.34-4.8s1.5-3.3,2.28-5c.42-.84.78-1.74,1.2-2.58a3.81,3.81,0,0,1,.66-1.68c.24-.42.42-.84.66-1.2s.84-.72,1-1.26c.12.06.42-.18.54-.18a4.9,4.9,0,0,1,1.08.6c.06.12.54.9.54,1a4.19,4.19,0,0,1-.18,1.2c-.12.36-.42.66-.54,1,0,.72-.42,1.08-.6,1.68-.06.12-.3.06-.36.24-.36,1-.48,1.92-.78,2.82-.06.18-.24.3-.24.42s0,.36-.06.54a4.53,4.53,0,0,1-.6,1c-.18.48-.24,1-.42,1.38a6.31,6.31,0,0,1-.48.66,6.46,6.46,0,0,1-1.44,2.34c.18.66-.3,1-.66,1.2.12.42-.36.48-.48.72s0,.36-.06.48c-.12.42-.66,1.08-.78,1.56-.06.3,0,.66-.06,1,0,.12-.24.24-.3.48s-.12.72-.48.78c0,.18.12.18.06.42-.3.18-.3.66-.48.9s-.42.24-.48.54a1.7,1.7,0,0,1-.66,1.74c0,.78-.48,1.08-.84,1.56.24.84-.48,1-.72,1.56-.12.24-.12.54-.24.72s-.42.48-.48.66,0,.66-.06.9-.18.24-.3.36.06.3,0,.42-.24.36-.3.54c-.12.42-.18,1-.3,1.44C99.66,69.63,99.9,69.15,100.2,68.91Zm-6.6-9.18c-.06.12-.06.36-.18.48s-.42.36-.54.6-.06.36-.18.48-.3.24-.36.36-.12.36-.18.54a2.84,2.84,0,0,1-.42.42,10.51,10.51,0,0,1-.66,1.08,5.72,5.72,0,0,0-.42,1.08,2.79,2.79,0,0,0-.36.54c-.06.18-.06.48-.12.66a3.54,3.54,0,0,0-.36.66,8.6,8.6,0,0,0-.42,1.32c-.12.48-.54,1-.42,1.5a5.35,5.35,0,0,0,1.74-1.74c.54-.66,1-1.32,1.56-2s1.14-1.14,1.68-1.8c1.32-1.56,2.58-2.94,4-4.38.72-.84,1.8-1.44,2.22-2.58-.54-.66-2-.6-2.88-.18C96,57.75,94.38,58.17,93.6,59.73Z"/><path class="cls-1" d="M118.14,61.77c-1.5,1.5-3,2.94-5.64,3.24-.18.06,0-.3-.18-.3-.42.24-.24.9-.36,1.32a1.92,1.92,0,0,1-.18.54,3.5,3.5,0,0,0,1.2,2.88c2.28.12,3.72-1,5.16-1.92a18.33,18.33,0,0,0,3.18-2.94,7.88,7.88,0,0,0,1.92-2.4,38.89,38.89,0,0,0,2.34-3.72c.24-.36.42-1,1-1,.18.6-.36,1.08-.36,1.62-.06.12.06.3,0,.42a16.33,16.33,0,0,1-.84,1.86c-.06.24,0,.42-.06.6s-.36.42-.48.66,0,.42-.12.6-.3.42-.42.66a1.29,1.29,0,0,0,0,.48,10.4,10.4,0,0,1-.9,1.56c-.3.48-.72.9-1,1.38a2.26,2.26,0,0,1-.18.6c-.24.42-.72.72-.9,1.26a11.89,11.89,0,0,0-1.5,1.5c-.24.12-.42.24-.66.36S119,71,118.8,71c-1.86.66-4.8,1-6.6.36a5.25,5.25,0,0,1-2.58-1.92c-.3-.36-.9-1-1-1.32a16.92,16.92,0,0,1-.24-3.12,14.45,14.45,0,0,1,2-6.6,12.14,12.14,0,0,1,1.08-1.74,14.33,14.33,0,0,1,2.82-2.46c.54-.42,1.14-1.26,2.34-1,.54.12,1,.66,1.44.9a10.64,10.64,0,0,1,1.38.84,6.76,6.76,0,0,1,1.26.9,4.06,4.06,0,0,1-.18,2.52c-.06.42,0,.66-.24,1-.48.6-1.56,1.14-1.38,1.92a3.4,3.4,0,0,1-.6.78C118.14,62.07,118.2,61.83,118.14,61.77Zm-3-3.06a8,8,0,0,0-1,1.38,12.5,12.5,0,0,0-1.32,1.68,8.68,8.68,0,0,0-.6,2.46,3.35,3.35,0,0,0,1.2-.84,35.87,35.87,0,0,0,3.06-3.72c.3-.42.72-.9,1-1.38s.84-1.08.48-1.68c-1.2.12-1.68,1.26-2.46,1.86C115.38,58.59,115.26,58.59,115.14,58.71Z"/><path class="cls-1" d="M137.64,59.37a12.08,12.08,0,0,0-4.38,2.22,9.29,9.29,0,0,0-1.14,1c-.48.36-1,.66-1.5,1.08s-.9.72-1.32,1.14c-.24,1.26.42,2.52.42,3.66a1.28,1.28,0,0,1-.18.42c0,.24.3.48.06.72.36.54.06,1.2.06,1.86a3.58,3.58,0,0,1-.06,1.38,3,3,0,0,1-.48.84,4.42,4.42,0,0,1-.48.78c-.12.12-.3.12-.42.24a3.61,3.61,0,0,0-.36.66,8.06,8.06,0,0,1-1.92,1.86,4.87,4.87,0,0,1-1.2.84c-.18.06-.48.06-.78.12a7.62,7.62,0,0,1-2.52.3c-1.26-.12-3.06-.66-3.36-1.62a2.15,2.15,0,0,1-.06-1.08c.3-2.58,2.1-4.44,3.6-6,.9-1,1.92-2.1,3.06-3.12.36-.24,1-.66,1.08-.9a5,5,0,0,0-.3-1.86c-.24-1.2-.36-2.16-.54-3.24.18-1.44.84-2.7,1.14-4.14a.21.21,0,0,0,.06-.12c.42-.6.54-1.32.9-1.92a13.51,13.51,0,0,1,1.86-2.22c.3.06.48-.48.84-.36a8.15,8.15,0,0,1,1.68.66c-.24.3-.06.72-.12,1.08s-.36.48-.54.84a8.26,8.26,0,0,1-.36.78,3.17,3.17,0,0,1-.42.66c-.12.36-.18.78-.3,1.14a13.67,13.67,0,0,0-.54,1.86,1.15,1.15,0,0,1,0,1.08c-.12.18-.3.3-.36.48s.12.48.12.72c0,.54-.3,1.14,0,1.62a5.17,5.17,0,0,0,1.8-1.26,22.38,22.38,0,0,1,3.66-2.34c.66-.36,1.38-.6,2-1,.3-.12.72-.72,1.14-.66a1,1,0,0,1,.72.6C138.3,58.65,137.76,59.07,137.64,59.37Zm-11.52,8.52c-.06,0-.06-.06-.12-.06a25.54,25.54,0,0,0-3.12,3.12,13.45,13.45,0,0,0-2.52,3.6,1.78,1.78,0,0,0-.24,1.08c.12,1.08,1,1.38,2.1,1a5.81,5.81,0,0,0,2.22-1.5c.3-.3.78-.72.84-1s.12-.66.24-1a9.43,9.43,0,0,0,.72-1.68A18.57,18.57,0,0,0,126.12,67.89Z"/><path class="cls-1" d="M150.78,53.55c.06.78-.78,1.14-.72,2.1-1.26,1.74-2.4,3.6-3.48,5.46,0,.72-.42,1-.84,1.56s-1,1.44-1.56,2.16c-.24.36-.42.78-.66,1.14-.66,1-1.56,1.74-2.22,2.58a11.2,11.2,0,0,0-1,1.32A10.2,10.2,0,0,1,139,71.73c-.18.12-.48.24-.72.42-.66.42-.84.9-1.8.9A3.8,3.8,0,0,1,133.92,72a2.68,2.68,0,0,1-.78-1.32c-.06-.48.18-1.26.18-1.86,0-.24-.12-.48-.12-.66s.36-.54.54-1c.06-.18,0-.42.06-.54.12-.36.42-.54.54-.84s0-.42.06-.66c.12-.48.48-.72.36-1.38.54-.54.66-1.5,1.08-2.1-.24-.78.48-1,.42-1.62.36-.18.54-.6.78-1a2.62,2.62,0,0,0,.42-1.26,26.09,26.09,0,0,0,1.92-3.9c.84-.12.78-1.44,1.44-1.68.36-.12.66.18,1-.12.18.18.9.36,1.32.6s1,.78,1,1c.06.48-.54.9-.84,1.26a19.71,19.71,0,0,1-1.38,2.76,3.64,3.64,0,0,1-.48.48c-.18.3-.36.72-.54,1.08a8.87,8.87,0,0,0-.6,1c-.06.12-.06.36-.12.54s-.48.54-.66.84a6.33,6.33,0,0,1-.36,1.44c-.06.18-.3.36-.36.54-.36.78-.24,1.8-.9,2.28-.36,1.62-1.56,3-1,4.92a6.66,6.66,0,0,0,1.74-1.92c1.26-1.74,2.58-3.42,3.9-5.16a4.19,4.19,0,0,0,.84-1,9,9,0,0,0,.66-1c1-1.14,1.92-2.58,2.94-3.84.72-.9,1.5-1.86,2.22-2.82a6.06,6.06,0,0,1,.78-1C150.12,54,150.36,53.49,150.78,53.55Zm-7.38-5.88a2.47,2.47,0,0,1-.18-1.44,12.43,12.43,0,0,1,.9-3.24,24.46,24.46,0,0,1,1.08-3,7,7,0,0,0,.84-1.62c.06-.18,0-.36.06-.54s.48-.48.66-.78a3.32,3.32,0,0,1,1.74,1.08c.06.06.06.24.12.36s.42.42.42.54a2.72,2.72,0,0,1-.42,1.68c-.06.12-.24.18-.3.3s-.18.54-.36.84c-.24.54-.54,1-.72,1.38-.54.18-.6.78-1,1.14-.06.12-.24-.12-.42,0-.6.78-.78,1.92-1.62,2.52,0,.36-.24.48-.36.72C143.64,47.61,143.58,47.67,143.4,47.67Z"/><path class="cls-1" d="M157.56,54.81a2.41,2.41,0,0,1,.66,0c.48-.12.48-.12,1,.24a4.11,4.11,0,0,1,1.26,1,6,6,0,0,1-.54,2,17.39,17.39,0,0,1-1,1.86c-.6,1.08-.66,2.22-1.38,2.94a7.86,7.86,0,0,1-1,2.16c0,.18,0,.36-.06.42-.78,1.68-1.32,3.66-2,5.4a5.53,5.53,0,0,1-.78,2.76c0,.24.36.06.3.3-.06.66-.78,1-.48,1.68a2.17,2.17,0,0,1-.42.6,8.51,8.51,0,0,1-.66,2.64c-.12.24-.48.36-.66.6a6.51,6.51,0,0,0-.48,1.14c-.24.36-.66.6-.9.9s-.06.48-.36.48c-.06.18-.12.3-.18.48a1.07,1.07,0,0,0-.42.3,2.08,2.08,0,0,1-.42.9c-.12.12-.3.18-.42.3s-.06.3-.18.42c-.3.42-.9.54-1.08,1.14-1,.36-1.26,1.56-2.16,2.1-.18.12-.42.12-.6.24-.42.18-.78.6-1.08.72a3,3,0,0,0-.72.12c-.6.12-1.26.54-1.86.6a6.5,6.5,0,0,1-1.86-.18,2.7,2.7,0,0,0-.42-.24,5,5,0,0,1-1.32-.18,6.42,6.42,0,0,1-1.62-1c-.6-.48-.84-1.26-1.56-1.5-.12-.12,0-.18,0-.3-.3,0-.6-.12-.54-.42s.36-.24.42-.48c.18-.48-.3-.9.12-1.14-.12.78.72.84.66,1.62a3.49,3.49,0,0,1,.9.66c1.26.72,2.82,1.68,4.8,1a10.76,10.76,0,0,0,4.5-3.06c.18-.24.3-.6.48-.9.42-.6,1-1.2,1.44-1.8a21.85,21.85,0,0,0,1.2-2,23.32,23.32,0,0,0,1.08-2.1c.24-.78.66-1.5.9-2.28s.54-1.68.78-2.58a13.35,13.35,0,0,0,.54-2c.12-.78.3-1.2.48-2a42.79,42.79,0,0,1,1.68-4.14,6.84,6.84,0,0,0,.54-1.8c-.66.18-1.08,1.08-1.5,1.68a7.67,7.67,0,0,1-1.44,1.86,1.15,1.15,0,0,1-.66.9c-.3,1-1.2,1.5-1.5,2.52-.54.66-1.2,1.56-1.86,2.28a6.49,6.49,0,0,0-.6.72,2.73,2.73,0,0,1-1,.84c-.36,0-.48-.18-.78-.3a18.08,18.08,0,0,0-1.92-.66c-1.32-1.38-.9-4.32-.42-6.42a14.84,14.84,0,0,1,2.64-5.82c.24-.36.42-.78.6-1.08a4.59,4.59,0,0,1,1-.9c.6-.6,1.08-1.32,1.56-1.8.12-.12.3-.18.42-.3a1.86,1.86,0,0,0,.42-.54c.66-.6,1.8-.84,2.34-1.38,1.2-.18,2.16,0,3.36-.12a8.68,8.68,0,0,1,2.16,1.32C157.26,55.35,157.32,54.93,157.56,54.81ZM145.26,70c-.18-.36-.42.12-.42.42A.51.51,0,0,0,145.26,70Zm6.36-11.16c-.54.78-1.14,1.56-1.74,2.4a22.33,22.33,0,0,0-1.68,2.46c-.06.18-.06.36-.12.6a7,7,0,0,0-.3.66,7.8,7.8,0,0,0-.66,2.94,23.34,23.34,0,0,0,2-2.28c.66-.84,1.26-1.68,1.86-2.46.18-.18.48-.36.66-.54.42-.54.66-1.26,1.26-1.56.48-1.08,1.44-1.56,2.1-2.46a4,4,0,0,1,.42-.66c.3-.42.66-.54.66-1.14.18-.18.48-.24.54-.54a3.52,3.52,0,0,0-2.34-.18C153.24,56.43,152.58,58.41,151.62,58.89Z"/><path class="cls-1" d="M189.06,58.53a5.49,5.49,0,0,1-.66,2.58c0,.9-.6,1.26-1.08,1.74-.12.78-.78,1-.66,1.92-.24.66-1,.9-1.2,1.5-.12.18-.06.48-.24.66a4.18,4.18,0,0,1-.54.42,7.84,7.84,0,0,0-1.38,1.44c-.78.36-1.14,1.08-1.68,1.68-.06.18.18.06.18.24-.36.36-.78.36-1.26.6a15.43,15.43,0,0,1-2.4,1.32c-.3.06-.66,0-1,.06-.54.12-1.14.42-1.74.54a5,5,0,0,1-.9.24c-.18,0-.24-.18-.42-.18s-.36.12-.48.12a11.28,11.28,0,0,1-1.86-.6c-.18-.06,0-.18-.12-.24-.72-.24-1.5-.36-1.62-1.14a.81.81,0,0,1-.24-.18h-.36a.84.84,0,0,1-.18-.24,4.15,4.15,0,0,0-.18-.72c-.06-.24-.24-.48-.3-.72a7,7,0,0,1,.3-3.66c.12-1.14.84-1.86,1.2-2.82a58.38,58.38,0,0,1,2.82-6.18c-.3,0-.54.3-.72.54a7.43,7.43,0,0,0-.66.78,11.62,11.62,0,0,0-1.08,1.68,9.49,9.49,0,0,0-1,1.2,10.64,10.64,0,0,0-.84,1.38c-.6.84-1.26,1.62-1.92,2.46a25.06,25.06,0,0,0-1.74,2.64c-.6.9-1,1.92-1.56,2.76-.24.42-.78,1-1.08,1.5-.18.24-.18.54-.36.66a1.85,1.85,0,0,1-1.92.18,1,1,0,0,1-1.5-.78c-1-.42-.42-1.68-.18-2.58a18.21,18.21,0,0,1,.48-2.1c.12-.18.3-.3.36-.48.48-1.32.6-2.7,1-4.08.18-.66.48-1.26.66-1.86s.36-1.38.6-2c.12-.42.42-.72.54-1.14a3.2,3.2,0,0,1,.18-.72c.42-.84,1.08-1.62,1.44-2.46a18.16,18.16,0,0,1,.78-1.92c.3-.12.36-.42.66-.54.24.18.36.48.66.66a1.8,1.8,0,0,1,1.86,1c.36.36.54.42.54,1a5.73,5.73,0,0,1-.54,1.62c-.6,1.44-1.5,3.18-2,4.5,0,.18-.24.18-.3.3.3.66-.3,1.2-.54,1.68-.06,1-1,1.44-1,2.4.54-.18.78-.84,1.14-1.32s.78-.9,1.14-1.44.54-1.08.9-1.56c1.38-1.92,2.88-3.9,4.38-5.76.36-.48.78-.9,1.14-1.38.18-.24.24-.54.42-.72a4.63,4.63,0,0,1,2.7-1.5c.6-.12,2.16.9,2.52,1.32a3.92,3.92,0,0,1,.54,2.22c-.06.36-.3.6-.42,1-.12.12-.06.36-.12.54a9.33,9.33,0,0,1-.66,1.56c-.12.3-.36.42-.42.66s0,.48-.12.66a1.27,1.27,0,0,1-.84.9c-.3.84-.9,1.26-1,2.34a3.9,3.9,0,0,0-.72,1.5c-.06.12-.24.24-.24.3s0,.36-.06.54-.3.42-.42.66a2.31,2.31,0,0,0-.18.6c-.12.24-.36.36-.42.54a5.66,5.66,0,0,0-.36.9,6.33,6.33,0,0,0-.6,1.8,2.81,2.81,0,0,0,1.56.48,6.26,6.26,0,0,0,1.8-.54,4.06,4.06,0,0,1,.72-.36c.3-.12.66-.12.9-.24a5.44,5.44,0,0,0,1-.54,4.54,4.54,0,0,0,1.08-.48,15.22,15.22,0,0,0,1.44-1.14c.42-.36.66-.84,1.08-1.2.24-.3.6-.54.84-.84a12.07,12.07,0,0,0,.66-1.26,15.19,15.19,0,0,0,2.28-5.82c.06-.9-.18-1.68.42-2.1a9.09,9.09,0,0,1-.72-1.92c-.24-.48-1-.42-1.44-.78-.3.6-1.38.12-2,.42a.69.69,0,0,0-.42-.3c-.06-.54.36-.66.6-.84a3.37,3.37,0,0,1,.6-.9c.36-.24,1-.24,1.26-.48s.36-.42.48-.42.36.18.6.3.66,0,.84.06a7.2,7.2,0,0,0,1.2.48,2.74,2.74,0,0,1,1.26.54c.3.36.42.78.72.9a22,22,0,0,1,.66,3A7.5,7.5,0,0,1,189.06,58.53ZM176.64,70.95c-.24.06-.42.18-.42.42C176.52,71.37,176.58,71.19,176.64,70.95Z"/><path class="cls-1" d="M22.68,9.58v0S22.71,9.59,22.68,9.58Z"/><path class="cls-1" d="M28.22,20.88a23.4,23.4,0,0,0-.31,4,20,20,0,0,0,.31,3.72Z"/><path class="cls-1" d="M66.38,30.66a26.85,26.85,0,0,0-.3,4.26q0,1.5.18,4.47t.18,4.47a27.83,27.83,0,0,1-.3,4.26l.24.24q0-.18.54-.78V38.1l-.54-.54Z"/><path class="cls-1" d="M55.34,2.4V6.72a20.64,20.64,0,0,0,.18-2.52A7.57,7.57,0,0,0,55.34,2.4Z"/><path class="cls-1" d="M24,47.23c0,.3,0,.6-.06.89S24,48,24,47.23Z"/><polygon class="cls-1" points="70.99 45.3 70.99 44.28 70.75 42.96 70.99 45.3"/><path class="cls-1" d="M24,34.26v6.66a4.58,4.58,0,0,0-.54,2.46,22,22,0,0,0,.06,2.94.74.74,0,0,1,.54.78s0,.08,0,.13c.15-2,.24-4,.24-6.07Q24.25,37.62,24,34.26Z"/><path class="cls-1" d="M108.73,36.54a10.61,10.61,0,0,0-.3-2.58v5.16A10.15,10.15,0,0,0,108.73,36.54Z"/><path class="cls-1" d="M72.71,1.08h0S72.72,1,72.71,1.08Z"/><polygon class="cls-1" points="108.44 33.96 108.97 33.48 108.97 17.28 108.44 16.26 108.44 33.96"/><path class="cls-1" d="M106.39,41.7l0-2.48a3.49,3.49,0,0,0,0,.55Q106.33,42.24,106.39,41.7Z"/><path class="cls-1" d="M104.58,8.51h0S104.58,8.5,104.58,8.51Z"/><path class="cls-1" d="M108.43,10.86v5.4a11.62,11.62,0,0,0,.3-2.7A11.63,11.63,0,0,0,108.43,10.86Z"/><polygon class="cls-1" points="113.75 0.78 113.75 47.88 114.53 48.36 114.29 0.3 113.75 0.78"/><rect class="cls-1" x="125.99" y="0.54" width="0.24" height="47.58"/><path class="cls-1" d="M123.65,5.08a4.46,4.46,0,0,0-1-2.12h0V1.56L121.85.3l-.54.48a6.07,6.07,0,0,1,.15,1.32,4.08,4.08,0,0,0-1-.35,2.31,2.31,0,0,1-.21-1q0-.72-.48-.78a2,2,0,0,1,.06.48,2.06,2.06,0,0,1-.53,1.19,4.83,4.83,0,0,0-.67.06l-.06-.65q-.18-.9-.66-1.08.18,1.2-.48,1.56v.6a4,4,0,0,0-1.06.81l0,0V.3l-.78.78v3.3a7.48,7.48,0,0,0-.4,2.54V40.76a7.46,7.46,0,0,0,.4,2.54v4.28l.78.78V44.68l0,.05a4.06,4.06,0,0,0,1,.81V47.1l.78,1.26.48-2a1.68,1.68,0,0,1,1,1.38.43.43,0,0,1-.24.42l.78.24a1,1,0,0,1-.12-.42,2.12,2.12,0,0,1,.39-.93,2.11,2.11,0,0,0,.39-1v-.18a4.05,4.05,0,0,0,.44-.15l0,2.2.78.48.54-1.26V44.75h0a4.53,4.53,0,0,0,1-2.13v5.75l.78-1v-46l-.78-1Z"/><polygon class="cls-1" points="112.19 48.12 112.19 0.54 111.65 41.1 112.19 48.12"/><path class="cls-1" d="M110.09,45l-.24,1.32Q110.09,46.14,110.09,45Z"/><path class="cls-1" d="M172.65,47.48a3.31,3.31,0,0,1,.27-.47,1.8,1.8,0,0,0,.39-.87q0-44.64-.9-45.84Z"/><path class="cls-1" d="M161,.3l0,1.24a1.42,1.42,0,0,0,.1-.52A2.69,2.69,0,0,0,161,.3Z"/><path class="cls-1" d="M169.29,3.42a13.92,13.92,0,0,1-.6-3.18q-.12,0-.42.48a1.86,1.86,0,0,0-.3.6v1a3.42,3.42,0,0,0-.54-.3V.78L167,.3l-.78.48V1.7a4.86,4.86,0,0,0-.54,0V1.32l-.78-1c0,.55-.08,1-.13,1.44a3.47,3.47,0,0,0-1.43.62V0a.74.74,0,0,0-.54.78q0,1.38-.48,1.56V3.59a6.6,6.6,0,0,0-.61,3V27.92l-.16-.08L161,1.54a.92.92,0,0,1-.56.56l-.24,26.52h-.24q-.12-1.5-.36-2.94a14.9,14.9,0,0,1-.24-2.88l.06-1.2-.54-.54-.24-19.5-.22,25.69-.68-1-.12-2.46a15.54,15.54,0,0,0-.78-4.74l-.06,5.7v0l-1.27-1.92a1.36,1.36,0,0,0-.23-.47L155,15.9l-.25,5.76-1.59-2.4-.5-6.48-.24,5.37-1.61-2.43c0-.08,0-.15,0-.24a18.29,18.29,0,0,1,0-1.94,2.19,2.19,0,0,1-.52-1.72V15l-1.82-2.75q-.05-.95-.25-2.43a24.24,24.24,0,0,1-.27-3l-.1,4.5-1.42-2.16a12.39,12.39,0,0,0-.22-1.56A19.33,19.33,0,0,1,145.79,5q-.12,1.45-.16,3l-.71-1.07-.85-1.33c-.19-1.83-.28-3.33-.28-4.46l-.18,3.73,0-.08a10.59,10.59,0,0,0-1.29-1.67c-.1-.11-.22-.19-.34-.29A8,8,0,0,0,141.21.3l-.07,1.93c-.11-.06-.22-.14-.34-.19a4.09,4.09,0,0,0-1-.29,2.84,2.84,0,0,1-.16-.9q-.06-.84-.54-.84L139,1.67l-.25,0a5,5,0,0,0-1,.1c0-.1,0-.2,0-.31q0-1.2-.51-1.44A2.88,2.88,0,0,1,137,1.62c-.07.16-.13.31-.19.45a5.38,5.38,0,0,0-.73.38A2.86,2.86,0,0,1,136,1.8q0-1.5-.54-1.5c-.08,0-.16.13-.24.39s-.16.39-.24.39v2.3a4.53,4.53,0,0,0-.54.75V1.32l-.78-1-.54.48v47.1l.54.48.78-.48V44.24a3.78,3.78,0,0,0,.38.56c0,.06.11.09.16.15v2.4l.78,1,.37-2.61a3.77,3.77,0,0,0,.59.18,6.94,6.94,0,0,1,.18.75,3,3,0,0,0,.66,1.68.86.86,0,0,0,.24-.72c0-.88.18-1.32.54-1.32V46a3.94,3.94,0,0,0,.78-.18v2.52h.54a2.81,2.81,0,0,1-.12-.78,1,1,0,0,1,.6-1V45.31a4,4,0,0,0,.56-.5,3.88,3.88,0,0,0,.66-1.09l.09,4.64q.72-.72.78-13.44V20l.54.54.24,5.94.54.54V19.5l.38-.38.15.23c.69,4.55,1.2,8,1.51,10.29q-.24-3.12-.24-5.82c0-.84,0-1.65.05-2.44l1.19,1.82a6.08,6.08,0,0,1,.08,1,3.13,3.13,0,0,0,.48,2.1l.3,6,.32-7.27,1.12,1.72c.1.74.22,1.55.36,2.44a33.1,33.1,0,0,1,.54,6.48,45.16,45.16,0,0,0,.3-5.34c0-.62,0-1.21,0-1.81l1,1.56a2.7,2.7,0,0,0,.53,1.93l.54,6.24V36.6c0-1.91,0-3.52,0-4.85L153.63,34c.31,3.17.59,5.63.85,7.36l.13-5.87,1.16,1.77.28,3.61a1.41,1.41,0,0,1,.48.86V38.41l1.59,2.44c.09.44.19,1.08.3,1.91q.33,2.55.33,3.33l.17-4.08.66.95a11.18,11.18,0,0,0,.74.93,33.92,33.92,0,0,0,.88,4.48l.06-1.44c0-.53,0-1.27,0-2.16a5.4,5.4,0,0,0,1.26.8c0,.16,0,.33,0,.46a1.31,1.31,0,0,1,.24.84q0,1.44.54,1.5l.09-2.5a6.3,6.3,0,0,0,1.16.17,12.39,12.39,0,0,1,.31,2.33h.24v-.48a1.72,1.72,0,0,0,.57-1.47c0-.15,0-.28,0-.4a5.67,5.67,0,0,0,.57-.08l.16.4s0,.3-.12.78a1,1,0,0,0,.66,1.26l.48-.48v-2.4a3.62,3.62,0,0,0,.54-.36v2.21l.78,1,.24-.24a22.73,22.73,0,0,1,.54-4.14V42a10.48,10.48,0,0,0,.13-1.6V6.63a7.41,7.41,0,0,0-.35-2.38Z"/><path class="cls-1" d="M150.8,13.54l0,0S150.8,13.53,150.8,13.54Z"/><path class="cls-1" d="M172.65,48.36v-.88a1,1,0,0,0-.12.4A1,1,0,0,0,172.65,48.36Z"/><path class="cls-1" d="M171.09,2.1q-.18-.12-.24-1T170.31.3l.24,48.06A3.44,3.44,0,0,1,171,47a3.43,3.43,0,0,0,.42-1.35q0-9.3-.12-21.78Q171.09,5.22,171.09,2.1Z"/><path class="cls-1" d="M129.75,1.56a.84.84,0,0,1-.54.78v44a.79.79,0,0,1,.66.9L130,.78l-.24-.24Z"/><path class="cls-1" d="M150.27,9.9v1.92A12.3,12.3,0,0,0,150.27,9.9Z"/><path class="cls-1" d="M131.55,1.2V2.52a1.33,1.33,0,0,1-.48,1.14V45a1,1,0,0,0,.24.51,1,1,0,0,1,.24.51l-.12.9a3.36,3.36,0,0,0,0,.9.91.91,0,0,0,.66.54L131.85.3Z"/><path class="cls-1" d="M145.77,4.74c0,.06,0,.14,0,.21,0-.43.06-.87.11-1.29A5,5,0,0,0,145.77,4.74Z"/><path class="cls-1" d="M156.57,42.3a2.81,2.81,0,0,0-.06-.58V44Q156.51,43.68,156.57,42.3Z"/><path class="cls-1" d="M218,13.44q.06.6.06-5.28a8.63,8.63,0,0,0-.84-4.26l.3,10Z"/><path class="cls-1" d="M220,11.22q0-.9-.42-6l.24,8.7A19.09,19.09,0,0,0,220,11.22Z"/><path class="cls-1" d="M220.11,22.14q0-1.38-.54-1.5l.24,21.54q.12-5.16.36-7.74l-.06-1.5.48-.48V29.88s0-.6.06-1.68v-.84a27.74,27.74,0,0,0-.3-4.44A1.07,1.07,0,0,1,220.11,22.14Z"/><path class="cls-1" d="M221.61,30.36q0,4.86.3,9.3v-.84q0-1.2-.06-2.34a4.62,4.62,0,0,1,.54-2.22q-.06-1.2,0-3.6t.06-3.54a29.32,29.32,0,0,0-.54-6.24Q221.61,25.44,221.61,30.36Z"/><path class="cls-1" d="M218,21.24v-.6h-.78l0,3.47a3.41,3.41,0,0,0-.94-.72c0-.92-.07-1.85-.12-2.75h-1l-.48.78-.3-.78h-9.48a1.72,1.72,0,0,0-.54,1.44c0,.26,0,.49,0,.7h-.59a8.13,8.13,0,0,0,.12-2.13l-1.32.24.3,1.26a2.85,2.85,0,0,0-.33.64,5.45,5.45,0,0,0-1,.1V20.64h-.48V21.9a3.75,3.75,0,0,0-.43,1.28,3.34,3.34,0,0,0-.85.54,3.18,3.18,0,0,0-.57.7,24.23,24.23,0,0,1,.29-3.77h-.24a7.78,7.78,0,0,0-.54,3.24v3.66a.91.91,0,0,1,.39.66q.09.48.15.9V27.89a2.36,2.36,0,0,0,.72.68,4.58,4.58,0,0,0,1.08.42v.1h.37a10.69,10.69,0,0,0,2.23.21h4.14l.16,0,.06,2.76a7.6,7.6,0,0,1-.3,2.16h-.24a22.56,22.56,0,0,1-.18,3.47q-.67.27-1.33.5c0-.42,0-.88,0-1.41a13.24,13.24,0,0,0-.27-3.33q0,3.24-.06,3.48a5.33,5.33,0,0,1-.4,1.51l-.2.07c-.35.1-.71.19-1.07.27l-.31-2v1.08L202.92,39q-.76.13-1.55.21a2.67,2.67,0,0,1,0-.41v-.24l-.41.69c-.44,0-.88,0-1.33,0a2,2,0,0,1-.06-.2l-.32.2c-.41,0-.82,0-1.21-.05l-.51-1.17-.15,1.09a14.19,14.19,0,0,1-1.49-.26,2.62,2.62,0,0,1-.16-.29q-.12-.3-.54-2.1,0,1.38,0,2.22a11.89,11.89,0,0,1-1.31-.47,7.81,7.81,0,0,1-.4-1.57q-.06-.36-.3-3.78l-.18,4.91a10.86,10.86,0,0,1-1.3-.8c0-.29,0-.62,0-1a4.5,4.5,0,0,0-.54-2.58V16.26l.48-.54q0-2.52.06-3.12a3.77,3.77,0,0,1,1.24-2.74h0a15,15,0,0,1,.24,2.87v4q.18-3.18.3-4,.36-2.58,1.5-3.42l.54,3.9V11.4c.24-.08.41-.46.51-1.14s.37-1,.81-1q1,0,1,1.44v.18l.54-1.56h.24a1.65,1.65,0,0,1,1.26.78V9.6l1-.3.78,1.32v-1l.54-.3q1.08,0,1.8,2.1l.24-2.07.43.22a2.94,2.94,0,0,1,.78,1.19q.12.24.6,1.92c0-.9,0-1.63,0-2.18a7.43,7.43,0,0,1,1,.93q.28.33.59.73a3.42,3.42,0,0,0,.73,1.78c0-.28,0-.55,0-.81.43.61.9,1.31,1.41,2.11a4.09,4.09,0,0,0,1.45,1.23,3.93,3.93,0,0,0,1.8.44,4.08,4.08,0,0,0,2.92-1.16,3.72,3.72,0,0,0,1.22-2.8,7.05,7.05,0,0,0-.81-3V9.3a28.79,28.79,0,0,0-1.08-6.42V8.16q-.36-.48-.78-1V6.48L213.93,6a4.47,4.47,0,0,0,.06-.72,4.23,4.23,0,0,0-.42-1.62,12.3,12.3,0,0,1-.66-1.56l-.23,3.47-.47-.36a13.69,13.69,0,0,0-1.4-4.14l-.24.3-.06.42a7.27,7.27,0,0,0,.12,1,3.61,3.61,0,0,1,.06,1.08,1.69,1.69,0,0,1-.09.34L210,3.86a4.63,4.63,0,0,0-1.42-2.78l-.23,2-.06,0a7.6,7.6,0,0,0-2-2.27L206,2.37h0A4.81,4.81,0,0,0,204.15.6q-.06.72-.42.72A1.6,1.6,0,0,1,203,.9a1.49,1.49,0,0,0-.81-.42q-.36,0-.66.6l-1-.48-1,.54a2,2,0,0,1-1.26-.48q-.54,0-.84,1L197,.6l-1.09,1.31c-.35,0-.71.07-1,.12a1.85,1.85,0,0,1-.2-1.07l.06-.36a1.48,1.48,0,0,0-1,1.08l-.15.62-.73.15a2.15,2.15,0,0,1,0-.29c0-.8-.08-1.24-.24-1.32a3.09,3.09,0,0,0-.9,1.74l-.06.22c-.36.11-.73.21-1.08.34V1.08a4.61,4.61,0,0,0-.94,2.44c-.42.18-.86.34-1.26.54,0-.1,0-.19,0-.31a7.77,7.77,0,0,0,.12-1.11,1.84,1.84,0,0,0-.24-1,1.13,1.13,0,0,1,.06.36,1.46,1.46,0,0,1-.36.72,1.45,1.45,0,0,0-.36.78l.12.42a3.82,3.82,0,0,0-.25.64c-.45.25-.89.5-1.31.78V2.4c-.33,1.27-.6,2.44-.84,3.52a18.2,18.2,0,0,0-1.46,1.22,28.49,28.49,0,0,1,.26-3.24l-.24-.24A33.08,33.08,0,0,0,183,7.92a17.79,17.79,0,0,0-1.25,1.45,36.86,36.86,0,0,0-.26-4.15q.06,1.38.06,1.5-.12,1.38-.54,1.08a24.54,24.54,0,0,1-.07,2.71,19.58,19.58,0,0,0-1.69,3.24l0-6.73L179,14.56l-.05.13,0,.1-.4.45v.86a27.7,27.7,0,0,0-1.06,7.76,27.21,27.21,0,0,0,1.06,7.72v2.14l.48.54a31.73,31.73,0,0,0,.12,4q.3,3.06.42,4l-.05-8a20.51,20.51,0,0,0,1.37,2.66,24.89,24.89,0,0,0,1,7.09l.1-5.49a18.39,18.39,0,0,0,1.22,1.4c.2,1.79.43,3.59.72,5.41V40.58c.42.4.86.78,1.32,1.13a6.21,6.21,0,0,1-.06,1.54,3.16,3.16,0,0,1,.51,1.71q.15,1.35.51,1.59l.19-4c.23.15.48.29.72.43.11.82.17,1.15.17.95a5.18,5.18,0,0,0,.54,1.83,4.15,4.15,0,0,1,.48,1.83l.24-1.14a7.93,7.93,0,0,0-.12-1.17,7.89,7.89,0,0,1-.12-1.17,2.55,2.55,0,0,1,0-.43c.28.14.58.26.87.38.12.4.25.87.41,1.43a15.77,15.77,0,0,0,1,2.64l.23-3.43.25.08a7.64,7.64,0,0,1,.82,1.61,6.79,6.79,0,0,0,1,2,6,6,0,0,1,.24-2.58l.54.54-.3.48a2.93,2.93,0,0,1,.57.87c.26.5.51.75.75.75l.24-.06v-.78l.54-.78.24.78,1.56.78.24-.78,1.5.78h1.5a1,1,0,0,0,1.08-.78l.3.78.24.06a2.22,2.22,0,0,0,1.8-1.08l.24,1a1.07,1.07,0,0,0,1.2-1,3.94,3.94,0,0,1,.6-1.62l.54,2.58a12.39,12.39,0,0,0,1.45-3.49l.3-.09a2.41,2.41,0,0,1,.35,1.43q0,1.66,0,1.91a.65.65,0,0,0,.51-.71q0-1.08.48-1.08c.14-.82.28-1.53.41-2.14l.76-.29a14.55,14.55,0,0,0-.16,1.89,5.76,5.76,0,0,0,.24,1.8A6.83,6.83,0,0,0,212,44l.06-.68.8-.37c0,.14,0,.26,0,.41a11.76,11.76,0,0,0,.27,3.21,42.55,42.55,0,0,0,.93-4.23l.59-.3.57-.33a26,26,0,0,1-.3,3.85l.24.24a28.35,28.35,0,0,0,.85-4.6,9,9,0,0,0,.85-.68,4.72,4.72,0,0,0,.59-.65l.06,4.67V42.78A1.17,1.17,0,0,1,218,41.7a34.26,34.26,0,0,0,.28-4,11.65,11.65,0,0,0,.1-1.6V30.28l.39-.39a10.63,10.63,0,0,0,.12-1.62,20,20,0,0,0-.45-3.51A20,20,0,0,1,218,21.24Zm-9.48,8.1h1s0,0,0,0h0c0,.08,0,1.15,0,3.21a6.11,6.11,0,0,1-.6,2.76c-.05.68-.1,1.26-.14,1.78l-.14.06Zm-18.72,6a67.06,67.06,0,0,1-.3-7.18v-13a33.07,33.07,0,0,0,.83-3.5l.19-.2V36.13C190.29,35.89,190,35.64,189.82,35.38Zm-2.13-3.45c0-.92-.12-2.07-.24-3.48q-.27-3.06-.27-4.56a5.27,5.27,0,0,1,.27-1.38,5.24,5.24,0,0,0,.27-1.38V15.69c.17-.4.35-.79.55-1.16l.19,18.92A13.56,13.56,0,0,1,187.68,31.92Z"/><polygon class="cls-1" points="223.95 21.9 223.95 35.28 224.19 34.98 223.95 21.9"/><path class="cls-1" d="M208.56,48.11h0C208.54,48.17,208.55,48.17,208.56,48.11Z"/><path class="cls-1" d="M177.21,12.12a4.31,4.31,0,0,1-.54,2.34q.06,2.28,0,6.78-.06,4.68-.06,6.72a66,66,0,0,0,.84,11.7L177.21,9.6Z"/><path class="cls-1" d="M175.11,35.52V13.44q-.3,5.4-.3,11.1T175.11,35.52Z"/><path class="cls-1" d="M64.69,37.48l-.16-.4-.43-12.6V36l-1-2.59c0-.16,0-.34,0-.49l-.36-.32-.18-.45V26L62,25.5V18.3q-.24,5.58-.24,11.46c0,.17,0,.33,0,.5l-1-2.53V27.3L60.45,27l-.26-.65-.47-13.7-.13,12.23-1.43-3.52q-.41-10.24-.79-14.89L57.24,19.1,56.39,17l0-2-.48-.54V7.26l-.54-.54v7.67l-1.26-3.11V8.52L53.54,8q.36-3.48.36-3.78a5.11,5.11,0,0,0-.84-3.18l-.13,7.27c-.29-.74-.55-1.39-.76-1.91l-.07-.15A26.14,26.14,0,0,0,51,.6V2.22c0,.7,0,1.35,0,2l0-.08a5.66,5.66,0,0,0-1.21-1.26c0-1.34-.27-2.1-.78-2.25l-.2,1.64a5,5,0,0,0-1-.36A3,3,0,0,0,47.36.6q-.78-.12-.78.9v.18c-.21,0-.42,0-.65,0a3,3,0,0,1-.22-.27q-.39-.54-.63-.54c0,.32-.09.6-.13.87A6.21,6.21,0,0,0,44,1.9a1.83,1.83,0,0,0-.5-1.06c-.44,0-.66.36-.66,1a3.18,3.18,0,0,0,.06.54h0a5.9,5.9,0,0,0-1.21.91c0-1,0-1.91,0-2.65q-.6.18-.6,1.2l.12.6a6.57,6.57,0,0,0-.47,2,15.22,15.22,0,0,0-1.22,2.49c.08-1.21.13-2.09.13-2.65a19.5,19.5,0,0,0-.24-3.18v1a4.3,4.3,0,0,0-.54,2.46A4.32,4.32,0,0,1,38.36,7l-.11,3.2-.88,2.25c0-.24,0-.47,0-.71q0-6.42-.27-9.66.06,1.56-.12,4.32-.18,3.18-.18,4.38,0,1,.06,1.86l-.54.54a16.12,16.12,0,0,1,.11,1.66L35,18.47c0-.62,0-1.25,0-1.91V11.1l-.48.54V18.3l-.54.54-.08,2.44L33,23.65q0-.9,0-1.87.06-7.56-.24-11.46v7.2l-.54.54-.29,8.31-1.26,3.19c0-.36,0-.7,0-1.07l.06-12-.78,14.16h-.3c0,.41.08.85.1,1.29l-1.23,3.13-.12-12.64v6.42l-.54.48v7.2l-.48.54c0,.24,0,.5.06.74-.43,1.06-.74,1.9-.93,2.5a6.62,6.62,0,0,0-.16.66V36.84c0-3-.08-5.65-.22-8l.3-.3v-.9c.62-.69.94-3.33.94-4.3a3.07,3.07,0,0,0-1-2.39c-.05,0-.12-.08-.18-.12s0-.14,0-.21h-.27a4.9,4.9,0,0,0-2.5-.56H14.73v-5.5A29.76,29.76,0,0,1,15,9.84a15.22,15.22,0,0,1,3.33-.3c2.69,0,4.13,0,4.31,0,0-.17,0-.34,0-.49h.81V9.6h1V9.09h1.29V9.6h.55a1.87,1.87,0,0,1,0-.52,5.88,5.88,0,0,0,1.7-.27c0,.27.07.53.11.79V9.06a1.3,1.3,0,0,1,.31-.24h.25V8.51a2.87,2.87,0,0,0,.48-.34,3.15,3.15,0,0,0,1-2.45,3.12,3.12,0,0,0-1-2.42,2.89,2.89,0,0,0-.59-.41,7.1,7.1,0,0,0-.45-1.81c-.08.51-.12,1-.17,1.56a5.76,5.76,0,0,0-1.37-.23h0a.64.64,0,0,1-.31-.6V1.08h-.55v1.3H24.57a1.76,1.76,0,0,1-.11-.64l.06-.66h-1c0,.52,0,.93,0,1.3h-.82a3.19,3.19,0,0,0-.21-1.3H8.13v.54l-.49.24-.25-.78L6.66,1a.66.66,0,0,0-.71.3,2.38,2.38,0,0,0-.17,1.06H5.66L5,2.41V1.08c-.64.09-1,.59-1.21,1.49a5.7,5.7,0,0,0-.89.26V1.08H2.59q-.49,0-.49.3a1.55,1.55,0,0,0,.15.54,1.64,1.64,0,0,1,.15.48q0,.36-.55.48v.55a3.47,3.47,0,0,0-1,1.23c0,.09-.07.18-.11.28l0-3.55-.31-.3L0,2.4V47.1l.49,1.26.31-.24A33.54,33.54,0,0,1,.61,43a4.29,4.29,0,0,0,.94,1.77c.09.1.2.18.3.27v1.25a1.44,1.44,0,0,0,.25.66,1.47,1.47,0,0,1,.25.66.74.74,0,0,1-.25.54l.8.24V45.71a4.18,4.18,0,0,0,1,.29v1.88l.8.48a1.54,1.54,0,0,1,.49-1.56L5,46.56A2.8,2.8,0,0,1,5,46a4.67,4.67,0,0,0,.79-.11l0,.09V47.4a.91.91,0,0,0,.8,1l0-2.73a4,4,0,0,0,1-.71v3l.8.48c.12-1.33.21-3.06.25-5.16A7.88,7.88,0,0,0,9,40.76V29.1h.7q.31,3.24.28,9.66t.28,9.6a6,6,0,0,0,.25-1.86,2.43,2.43,0,0,1,.55-1.74l.25-15.66h.49q.31,3.18.28,9.54t.28,9.48q-.06-1.86.55-2l.25-17h1q.31,3,.28,8.82t.21,8.64H15l.31-17.46H15A3.06,3.06,0,0,1,16,29a12.87,12.87,0,0,1,1.45.12,12.39,12.39,0,0,0,1.45.12,2,2,0,0,0,1.69-.61h.88l0,.49h.74c.06-.15.1-.32.15-.49h1.08l.35,0v.51H24c.06-.17.11-.35.17-.53a4.33,4.33,0,0,0,1.68-.49v1l.23-.22-.29,13.3a2.89,2.89,0,0,0-.54,1.68,7.24,7.24,0,0,0,.42,1.92,7.41,7.41,0,0,1,.42,2.1v.48h.24V43a3.92,3.92,0,0,0,1.12,1.81l.13.1c0,1-.12,2-.23,2.91l.48.48.78-1,0-1.69a3.92,3.92,0,0,0,.49.2l.07,1.49.78,1,.48-.48a13.2,13.2,0,0,1-.17-1.83h.12a5.39,5.39,0,0,0,.58,0c0,.1,0,.19,0,.3a2.22,2.22,0,0,0,.78,2,14.28,14.28,0,0,0,.45-2.58v-.09a2.56,2.56,0,0,0,.95-.75l.1-.14c0,1.4,0,2.6,0,3.57h.54a5.31,5.31,0,0,1-.12-1c0-.64.22-1,.66-1v-1.2c0-.89,0-1.68,0-2.39q.4-.92.86-2.14l0-.08c.06.87.09,1.89.08,3.12a25.86,25.86,0,0,0,.27,4.74q.66-.66.6-3.66l-.06-4a1.88,1.88,0,0,0,.42-1q.18-.84.54-.84l.3.06a20.38,20.38,0,0,1,.24,4.32,18,18,0,0,0,.3,4.38l.24-8.22.54-.48,1.26.48L39.62,41a4.36,4.36,0,0,0,.3,1.68q-.06-3.24.54-3.84l12.06.24L52.75,45l.3-6.12h1a20.27,20.27,0,0,0,.39,4,25.27,25.27,0,0,1,.45,3.87q0,.72-.06,1.38A27,27,0,0,0,55,43.5a28.31,28.31,0,0,1,.3-4.62h.54q.06.12.42,2.61t.36,2.85q0,3.3.48,4l.16-6.51.4.92a12.18,12.18,0,0,0,.69,1.37,18.48,18.48,0,0,0,0,2.12,7,7,0,0,0,.54,2.1l.54-.48.07-2.47a3.68,3.68,0,0,0,.45.29,3.28,3.28,0,0,0,.34.12l.15,2.54h.78a4,4,0,0,1,.4-2.3h.08L62,46l.26,1.84.78.48c.11-.79.16-1.66.2-2.57a4,4,0,0,0,.82-.42v2.51l.48.48a13.49,13.49,0,0,0,.53-3.95,3.64,3.64,0,0,0,.9-2.33A13.93,13.93,0,0,0,64.69,37.48ZM13.41,20.08a42,42,0,0,1-.28-5,43.31,43.31,0,0,1,.31-5.28H14q.25,2.52.25,5.28c0,1.75-.08,3.39-.23,5Zm-1.85,0a42.08,42.08,0,0,1-.28-5,43.41,43.41,0,0,1,.31-5.28,43.6,43.6,0,0,1,.31,5.28,42.24,42.24,0,0,1-.28,5Zm32.11-3.21c0,.13,0,.26.08.41a11.66,11.66,0,0,1,.3,2.16c0,4.5.06,7.52.17,9.11H42.59Q43,22.48,43.26,18Zm7.82,9.41v2.27h-.66A31.87,31.87,0,0,0,51,25.2c0-.07,0-.17,0-.24Zm-2.34-6.4v2l.54.54v6.11h-1v-10Zm-1.53-4.2a13.64,13.64,0,0,0-.33,3,41.31,41.31,0,0,0,.36,4.5,41.41,41.41,0,0,1,.36,4.5c0,.3,0,.59,0,.89H44.82a62.83,62.83,0,0,1,0-6.35q.3-5.22.3-6.66,0-1.26-.06-2.34a22.77,22.77,0,0,1,.78,6.48c0,1.48,1.08,2.52,1.08.48,0-3.45,0-5.32,0-5.67l.56.73Zm-5.91,6.67v6.2H40.64c0-.2,0-.41,0-.65a2,2,0,0,1,.6-1.62c0-.5,0-1.36,0-2.59Zm-2.2,6.2h0l0-.07Z"/><path class="cls-1" d="M107.16,23.74c0-1,0-2-.12-2.94-.15-4.47-.44-8.81-.89-13l.06,8a21.48,21.48,0,0,0-1.08-3c0-.13,0-.25,0-.33a2.53,2.53,0,0,1-.6-1.86,20.11,20.11,0,0,1,0-2.05,1.19,1.19,0,0,1-.52-1.13V6a4.71,4.71,0,0,0-.24,1.5v2.74a17.33,17.33,0,0,0-1.37-1.89l-.67-4.14V5.7c0,.66,0,1.28,0,1.86-.39-.42-.8-.82-1.23-1.2a5.84,5.84,0,0,1-.41-1.3,3.49,3.49,0,0,0-.69-1.65l.11,2.15c-.38-.28-.76-.54-1.15-.78a9.71,9.71,0,0,0-1-2.39v.66c0,.42,0,.81,0,1.17A13.56,13.56,0,0,0,96,3.62a14.77,14.77,0,0,0-.89-2c0,.65,0,1.21,0,1.71l-.38-.12-.57-.12A1.92,1.92,0,0,0,93,1.62a11.42,11.42,0,0,1,0,1.22l-.93-.13a8.81,8.81,0,0,0-1.33-1.63l-.19,1.46-.34,0-.37-.59q-.54-.9-.9-.9-.54,0-.78.84l-.78-.78H74a2.57,2.57,0,0,0-.47,1.58,4.84,4.84,0,0,0-.85.33q0-1.73,0-1.91h-.22q-.78,0-.78,1a4.78,4.78,0,0,1-.24,1.56V4a4.34,4.34,0,0,0-.78,1.67V1.08h-.24q-.54,0-.54.84t-.24,1l.24,45.48h.78V42.07c0,.18.07.36.12.52a3.28,3.28,0,0,0,.88,1.48l0,3.81,1,.48A10.29,10.29,0,0,1,73,45a1.41,1.41,0,0,1,.48.48V47.4q0,1,1.38,1h.24l.24-.78.48.78,3.36.06q1.8.06,3.36,0a20.17,20.17,0,0,0,3.3-.3,1.8,1.8,0,0,0,1,.3,1.36,1.36,0,0,0,1.38-.84q.24.84.78.84.36,0,1.26-1.62c.56,0,.84.42.84,1.26l-.06.3a2.55,2.55,0,0,0,1-1.14,10.74,10.74,0,0,1,.6-1.44,1.19,1.19,0,0,1,.54,1.14q0,1.26.24,1.44a3.88,3.88,0,0,0,.93-2.25,11.77,11.77,0,0,1,.35-1.6l.28-.07.48,3.44A8.38,8.38,0,0,0,96.1,46a9.55,9.55,0,0,0,.51-2c0-.07,0-.12,0-.18l.4-.16.31-.16a12.41,12.41,0,0,1,.06,1.28v2.82l1.2-3.9c.11-.37.21-.73.29-1.07l.56-.39c0,.41-.07.82-.07,1.22a13.31,13.31,0,0,0,.36,3.12v-.78q.36-.18.48-1.38t.54-1.44l-.21-1.6.26-.22c.33-.3.64-.62.94-.94,0,.09,0,.17,0,.27A27.31,27.31,0,0,0,102,45.3l.24-3.84a4,4,0,0,0,.54-2.34c0-.05,0-.09,0-.14.36-.46.69-.95,1-1.44v4.94l.24,1.5v-2a3,3,0,0,0,.54-2,3,3,0,0,1,.54-2l0-2.86a21.52,21.52,0,0,0,1.16-3.54l.06,7.76a1.85,1.85,0,0,1,.56-1.13q.24-5.1.24-10.26c0-1.05,0-2.08,0-3.12C107.14,24.39,107.16,24.07,107.16,23.74ZM95.32,35l-.2-22.55.27.3a55.13,55.13,0,0,1,.8,10.21q0,8-.17,11.05A10.6,10.6,0,0,1,95.32,35ZM80.71,38.42V9.84h.78l.23,28.58Zm12.17-1.25c.15-2.68.2-4.78.13-6.27l-.48-.54a37,37,0,0,1-1,7.4c-.25.09-.49.15-.74.22l-.3-2.7h-.3a15.34,15.34,0,0,1-.55,2.94c-.17,0-.34.07-.51.08l-.54,0c-.09-.47-.24-.74-.45-.78l-.29.82c-.61,0-1.31,0-2.12,0H82.22l.29-28.58h.18a1.27,1.27,0,0,1,1.08.48.94.94,0,0,1,.84-.48q.42,0,1.5,1a2.62,2.62,0,0,0,.24-.57c.12-.34.26-.51.42-.51a1.16,1.16,0,0,1,.36.06A3,3,0,0,0,87.64,11a3,3,0,0,1,.51,1.14q.54-.24.54-.66a1.84,1.84,0,0,0-.15-.57,1.81,1.81,0,0,1-.15-.57c0-.24.18-.4.54-.48a3.74,3.74,0,0,1,.9,2q.18,1.2.36,2.34h.3a5.53,5.53,0,0,0,.24-1.74v-2.4c.28,0,.54.14.78.54a2.28,2.28,0,0,0,.06,1.14,6.29,6.29,0,0,1,.24,1.14l-.06.54a5.26,5.26,0,0,1,.54,2.82,9.83,9.83,0,0,0,.24,2.82h.24a28.57,28.57,0,0,0,.3-4.26,28.15,28.15,0,0,0-.3-4.2l0,0q.3.15.6.34a4.59,4.59,0,0,1,.16,1.1q.06,1.41.48,1.65.3,5.46.3,11.16T94,36.06a.91.91,0,0,0-.35.54A6.56,6.56,0,0,1,92.88,37.17Zm4.51-6.31V16.37a15.4,15.4,0,0,1,.41,1.52c.12,2.23.19,4.52.19,6.9,0,1.28,0,2.55-.06,3.8A18.93,18.93,0,0,1,97.39,30.86Z"/></g></g></svg>