<svg xmlns="http://www.w3.org/2000/svg" viewBox="0 0 224.58 112.8"><title>Asset 2</title><g id="Layer_2" data-name="Layer 2"><g id="Layer_1-2" data-name="Layer 1"><path d="M35.39,3.3a2.09,2.09,0,0,1-.87-.42,2.1,2.1,0,0,0-.87-.42,4.89,4.89,0,0,0-2.46.78A6.24,6.24,0,0,1,29.51,4a4.52,4.52,0,0,1-1.8-.84,19.38,19.38,0,0,1-1.8,2,1.82,1.82,0,0,1-1.08.3,2.22,2.22,0,0,1-.63-.12,2.31,2.31,0,0,0-.63-.12,4,4,0,0,0-2.82,1,3.53,3.53,0,0,0,2.52.9h4.38A6.45,6.45,0,0,0,30,6.42a6.39,6.39,0,0,1,2.22-.6,4.36,4.36,0,0,1,.72.09,4.23,4.23,0,0,0,.72.09,1.41,1.41,0,0,0,.72-.39,5.34,5.34,0,0,1,.6-.45h.72a4.35,4.35,0,0,1,.42,2.22q-.3,1.5-5,1.56l-8.76.18a7.57,7.57,0,0,1-1-.09l-1.47-.21-1.47-.21a7.74,7.74,0,0,0-1-.09q-3.54,0-5,1.8v6.36q1.14,1.14,1.8,1.14l14.34.24a1.64,1.64,0,0,1,.87.15,4.55,4.55,0,0,1,1,.57,3.88,3.88,0,0,1,.81.81,3.06,3.06,0,0,1,.45.81A2,2,0,0,1,31,22.08a1,1,0,0,0,.15.39,5.27,5.27,0,0,1,.27.57c.08.2.16.39.24.57a1.16,1.16,0,0,1,.12.45q0,.84-1.56,1.86H29.09A1.41,1.41,0,0,0,29,25.5a1.35,1.35,0,0,1-.12-.48,4.75,4.75,0,0,1,.6-1.44,5,5,0,0,0,.66-1.5q0-2.16-4.74-2.16-.84,0-.84.72t1.38,1.08a19,19,0,0,1,1.92.54V23.4a3.89,3.89,0,0,1-2.88,1.08,7.09,7.09,0,0,1-1.08-.12,7.2,7.2,0,0,0-1.08-.12l-.36.36q.06.66,1.8.72l.3.24v1a3.8,3.8,0,0,1-2.4.48,10.88,10.88,0,0,1-1.77-.21,11,11,0,0,0-1.77-.21,19.69,19.69,0,0,0-2.34.18l-2.4.3a4.43,4.43,0,0,0-1.62.9V39.54A2.58,2.58,0,0,1,11.75,41a1.37,1.37,0,0,1-1.14.72,1.75,1.75,0,0,1-.42-.09,1.79,1.79,0,0,0-.42-.09q-1,0-2.46,2c-.12.24-.29.55-.51.93s-.49.83-.81,1.35a1.28,1.28,0,0,1-.9.24,1.56,1.56,0,0,1-1.38-.6,15.23,15.23,0,0,0-1.38-1.74V2.52A11.17,11.17,0,0,1,4,.72q.24,0,4-.36Q12,0,13.07,0c.32,0,.7,0,1.14.06s.94.1,1.5.18q1.8.18,2.7.18a2.06,2.06,0,0,0,.66-.21A2.07,2.07,0,0,1,19.85,0a2,2,0,0,1,.72.21,2,2,0,0,0,.72.21,3.35,3.35,0,0,0,.87-.21A3.38,3.38,0,0,1,23,0c.24,0,.56,0,1,.06l1.23.15,1.23.15q.6.06,1,.06A4.94,4.94,0,0,0,28.55.21,5,5,0,0,1,29.69,0l1.8.36a6.23,6.23,0,0,1,.75-.09,7.32,7.32,0,0,1,1.11,0,3.52,3.52,0,0,1,.87.3,9.62,9.62,0,0,1,1,.54,5.78,5.78,0,0,1,.84.63,1.84,1.84,0,0,1,.48.63Q36,3.3,35.39,3.3Zm-24.54,3a7.9,7.9,0,0,1-1,.09q-.6,0-2.16-1.92A6.33,6.33,0,0,0,5.27,2.28q-.9.9-.9,1.32t1,1.5A7.81,7.81,0,0,1,6.47,6.42a5.27,5.27,0,0,1-1.08,1.8l.48.36c.32.24.56.34.72.3h.66q.66-1.2,1.26-1.2a1.83,1.83,0,0,1,.69.21,1.81,1.81,0,0,0,.69.21q.78,0,1.92-1.86A8.06,8.06,0,0,0,10.85,6.33Zm3.81,14q-.81-.06-1.83-.18-2.7-.78-2.64-.78-2.88,0-2.88,1.86a1.43,1.43,0,0,0,.48,1c.16,0,.38-.11.66-.21s.64-.25,1.08-.45a5.46,5.46,0,0,1,1.62-.6,6.17,6.17,0,0,1,1.29.21,6.08,6.08,0,0,0,1.29.21,5.34,5.34,0,0,0,2-.48q.12-.06.24-.48Zm1.29,3.78a14.35,14.35,0,0,1-2.64,0q-2.28-.18-2-.18a4.25,4.25,0,0,0-1.08.06Q7.31,25.8,7.31,26.76a1.43,1.43,0,0,0,.48,1q.36.06,3.3-2.22a4.4,4.4,0,0,1,2.7-.48,6.72,6.72,0,0,0,2.58-.24A1.17,1.17,0,0,0,15.95,24.06ZM11,45.3a1.77,1.77,0,0,1-1.44.78q-1.08,0-1.08-1,0-.42,2.16-2.58h.72a1.77,1.77,0,0,1,.24,1.14A2.63,2.63,0,0,1,11,45.3Z"/><path d="M70.55,42.12a1,1,0,0,1-1-.48q-1-2-1.86-3.87t-1.5-3.57q-.24-.48-.78-2T64,28.14c-.08-.28-.21-.67-.39-1.17s-.43-1.15-.75-2q-.78-2.4-2-2.4-.84,0-.84,1a2.48,2.48,0,0,0,.54,1.14,5.66,5.66,0,0,1,.66,1,3.59,3.59,0,0,1,.3,1.38,5,5,0,0,1-1.08,2.88q-.48.78-1,1.5,0,1,2.64,6.9a7.46,7.46,0,0,0,.42,1.8,3.45,3.45,0,0,0,.84,1.44l.84.24.9.24q.6.24.6,1.32,0,2.16-1.68,2.16A2.16,2.16,0,0,1,61.79,44L61,41.88q-1.14-2.16-3.36-10.44a2.68,2.68,0,0,0-1.74-1.68,7.36,7.36,0,0,1-1.62.12q-1.8.12-3.6.09T47,29.82a1.38,1.38,0,0,1-.54-.18,1.42,1.42,0,0,0-.6-.18q-.3,0-1.08.78a10.36,10.36,0,0,1-1.38,1.26,6.86,6.86,0,0,1-.54,2.28q-.3.36-.9,1.26c0,.2,0,.43,0,.69s0,.57-.09.93q-.3.42-.69,1.08t-.87,1.62a15.37,15.37,0,0,1-.72,3.12l-.33.78-.51,1.14a5.59,5.59,0,0,1-4.14,2.1A8.63,8.63,0,0,1,31.61,46q-2-.6-2-1.74A1,1,0,0,1,30,43.5a1.14,1.14,0,0,1,.75-.36,1,1,0,0,1,.48.18l.63.36.63.36a1,1,0,0,0,.48.18c.16,0,.42-.18.78-.54a3.7,3.7,0,0,0-1.38-1.92q-1.92-.3-1.92-1.62a2.67,2.67,0,0,1,.36-.84,7.45,7.45,0,0,0,.42-.84,19.16,19.16,0,0,1,.42-1.92q.3-1.14.72-2.64a23.09,23.09,0,0,0,2.16-3.72,44.68,44.68,0,0,1,1.83-5.7q1.23-3.18,3.15-7.2a75.08,75.08,0,0,0,2.4-7.44,5.34,5.34,0,0,0,.9-1.44q1.2-6.24,3.9-7a2.67,2.67,0,0,1,.33-.27l.51-.39A8,8,0,0,1,50.39.18q3.42,0,6.06,5,1,1.86,1.74,3.51t1.44,3.15c.08.4.16.85.24,1.35s.2,1.09.36,1.77q.36.48.9,1.26L62,18.15q.57,1.23,1.41,3.09l5,12.24q3.12,7.5,3.12,7.74Q71.57,42.12,70.55,42.12ZM41.66,27.75q-.33-.45-.75-.93-1.2-2.34-1.62-2.34a1.42,1.42,0,0,0-.87.48,2.26,2.26,0,0,0-.63.84q-.72,2.28-1.71,4.95t-2.25,5.73a1.9,1.9,0,0,0,.54.12.86.86,0,0,0,.6-.3q.66-.6,1.5-1.47l2-2.07.12-2.4q.06-2.16,1.26-2.16.36.18,2,1.26a1.38,1.38,0,0,0,.48-1A6.15,6.15,0,0,1,41.66,27.75Zm-2.61,8.13q-.36.42-.9,1L36.89,38.1a4.55,4.55,0,0,0,1.62,1.32l.48-.51q.24-.27.54-.57c.08-.48.15-.89.21-1.23a5,5,0,0,0,.09-.81Q39.83,35.88,39.05,35.88Zm5.64-15.06Q44,20,43,18.72a2.58,2.58,0,0,0,0-.33q0-.21-.09-.51a10.3,10.3,0,0,0-1.5-.84,3.4,3.4,0,0,0-1.08,2.58A3,3,0,0,0,41.33,22a2.92,2.92,0,0,1,2.58,1.2,5.62,5.62,0,0,0-.09.72c0,.28,0,.6,0,1a6.07,6.07,0,0,0,1.08,1.92q1.38-1.38,1.38-1.74A7.61,7.61,0,0,0,44.69,20.82Zm7.56-1.44a10.94,10.94,0,0,1-.9-1.86,3,3,0,0,0-1.5-1.74q-1.74,3.6-1.74,3.72a1.7,1.7,0,0,0,1.44,1.44,5.91,5.91,0,0,0,2.7-.84Zm2.94,4.5Q54.35,23,54.11,23a2.08,2.08,0,0,0-.78.27,2.09,2.09,0,0,1-.78.27c-.44,0-.8.06-1.08.06h-.72a2.72,2.72,0,0,0-1.62.54l.27.27a5.54,5.54,0,0,0,.45.39l.66.15a8.88,8.88,0,0,1,1.08.33,6.07,6.07,0,0,0,1.8.42,3.42,3.42,0,0,0,1.8-1.08Zm-.42-16.8-.3-.24A5.33,5.33,0,0,0,51.89,8q-1.68,1.14-1.68,1.86a4.18,4.18,0,0,0,.9,2,3.16,3.16,0,0,0,1-1.26l.36-1.08a7.52,7.52,0,0,1,2.28-1.62Zm4.11,11.85-.75-1.17a4.91,4.91,0,0,0,.48-2.52,6.25,6.25,0,0,0-1-2.64q-1-1.8-1.62-1.8Q54.95,10.8,55,12a5.43,5.43,0,0,0,.6,1.62,7.88,7.88,0,0,1,.66,1.5,4.7,4.7,0,0,1-1,1.68,7.49,7.49,0,0,0-.9,1.56,2,2,0,0,0,.9,1.5,10.69,10.69,0,0,1,1.83.24,10.57,10.57,0,0,0,1.83.24,2.6,2.6,0,0,0,.6-.48Q59.21,19.44,58.88,18.93Zm11.58,27a2,2,0,0,1-1.11.57H67.91l-.24-.24v-1.2a8.12,8.12,0,0,1,1.38-.78,4.22,4.22,0,0,1,1.2-.48,1.35,1.35,0,0,1,.9.48v.66Q71.15,45.36,70.46,45.93Z"/><path d="M85.33,2c1.55,0,3.28,0,5.15.11l-.29.29L91.6,3.81l.15.14a3.34,3.34,0,0,0-.39.33l-.59.59V6.8q-1.22-.1-2.56-.1h-.69l0-.18A3.62,3.62,0,0,0,86,4.16a4,4,0,0,0-2.44-1,3.74,3.74,0,0,0-2.39,1.06,3.32,3.32,0,0,0-1.35,2.44,2.88,2.88,0,0,0,1.1,2.22,3.18,3.18,0,0,0,1.89.8,5.29,5.29,0,0,0-.27,1.2v.21L82.31,35q0,.1,0,.21a4.62,4.62,0,0,0-2-.47H79.26l-.59.91q-.75,1.15-1.6,2.37c-.2.3-.38.55-.54.75V31.64a6.79,6.79,0,0,0,1-.12l.35-.06h2l0-2,.24-15A3.63,3.63,0,0,0,77.91,11l-1.25-.55-.13.13V5.86l.11-.4c.06-.23.16-.55.31-.94L77.14,4,77,3.45A3.84,3.84,0,0,1,77,3a1.65,1.65,0,0,1,0-.28c.1-.3.27-.54,1.08-.55l.37.11a4.77,4.77,0,0,0,1.51.31h.25l.24-.06c.35-.09.91-.26,1.7-.52.11,0,.34,0,.75,0h2.46m-7.2.18h0m27.08,18.4h0m-15.09,18,.37.11a4.94,4.94,0,0,0,1.57.31h.49l0,.19a3.77,3.77,0,0,1-.12.58c-.43.4-.94.92-1.54,1.58l-1.12,1.24,1,1.32.09.12-.69-.09a10.48,10.48,0,0,0-1.12-.07,8.84,8.84,0,0,0-2.31.4,9,9,0,0,1-.95.22l-.1-.05a3.68,3.68,0,0,0-1.8-.57,8.41,8.41,0,0,0-1.4.15,4.74,4.74,0,0,1-.7.09h-.53a5.65,5.65,0,0,0,.25-.6,4,4,0,0,0,.58,0,4.25,4.25,0,0,0,2.51-.82A3.32,3.32,0,0,0,86.07,40a3.65,3.65,0,0,0-.06-.64h1.1l.55-.45a5.17,5.17,0,0,1,2.46-.34m-8.34,4.14h0M85.33,0H82.87a7.63,7.63,0,0,0-1.2.06Q80.41.48,79.93.6a3.34,3.34,0,0,1-.87-.21,3.34,3.34,0,0,0-.93-.21A2.86,2.86,0,0,0,75,2.34a4,4,0,0,0,0,.84,5.78,5.78,0,0,0,.09.66q-.24.66-.36,1.11a4,4,0,0,1-.18.57v34.2A2.06,2.06,0,0,0,75,40.89a1.25,1.25,0,0,0,1,.63q1.14,0,2.76-2.4.84-1.2,1.62-2.4a3.87,3.87,0,0,1,2.4,1.14A2.91,2.91,0,0,1,84.07,40a1.33,1.33,0,0,1-.63,1.11,2.28,2.28,0,0,1-1.35.45,4,4,0,0,1-.78-.12,4.12,4.12,0,0,0-.78-.12q-.48,0-.9,1.5t-1.56,1.44a1.38,1.38,0,0,1-.48-.12,1.39,1.39,0,0,0-.48-.12c-.32,0-.48.08-.48.24V45a7.74,7.74,0,0,1,1.32.84,18.85,18.85,0,0,0,3.84.24A6.56,6.56,0,0,0,82.84,46a6.73,6.73,0,0,1,1-.12,2.22,2.22,0,0,1,.84.33,2.34,2.34,0,0,0,.78.33,7.19,7.19,0,0,0,1.77-.33,7.23,7.23,0,0,1,1.77-.33,8.64,8.64,0,0,1,.9.06l1.14.15,1.14.15a8.43,8.43,0,0,0,.9.06,2.31,2.31,0,0,0,1.5-.84v-.78a11.26,11.26,0,0,1-2.28-2,18.56,18.56,0,0,1,1.8-1.8,7.26,7.26,0,0,0,.36-1.5,1.64,1.64,0,0,1,1.14-1.08l3.27-1.23,2.13-.81a8.05,8.05,0,0,0,1.74-2.76A11.21,11.21,0,0,0,104,30.3a1.18,1.18,0,0,0-.24-.84h-1.14q-1.2,1.86-1.26,1.92A9.88,9.88,0,0,1,92.05,37a3.3,3.3,0,0,1-.93-.21,3.34,3.34,0,0,0-.93-.21q-2.82,0-3.78.78h-.54Q84.31,35.76,84.31,35l.18-23.88a2.81,2.81,0,0,1,1.62-2.34,14.69,14.69,0,0,1,2.1-.06,21.59,21.59,0,0,1,7.14,1,18.35,18.35,0,0,1,2.88.72,10.32,10.32,0,0,1,2,2.1q.3.36.69.93l1,1.41a2.85,2.85,0,0,1,.06.54.66.66,0,0,0,.06.3,2.08,2.08,0,0,0,1.38.9,1.37,1.37,0,0,0,1-.54,17.15,17.15,0,0,0-1.86-4.14q-1.92-3.06-3.78-3.78-.36-.12-3.48-.6-2-.24-2.52-1V5.7a2.75,2.75,0,0,1,1.68-.6,5.89,5.89,0,0,0,1.44-.18V3.78l-1.62-.66A3.85,3.85,0,0,1,93,2.4L93.37,2q1.74.12,2.73.15a10.3,10.3,0,0,1,1.29.09A2.08,2.08,0,0,0,98,1.8V.9a3.76,3.76,0,0,1-.42-.24l-.3-.18Q93.79.24,90.82.12T85.33,0Zm-2.4,7.68a1.18,1.18,0,0,1-.75-.33.92.92,0,0,1-.39-.69c0-.24.22-.55.66-.93a1.88,1.88,0,0,1,1.08-.57,2.13,2.13,0,0,1,1.2.57,1.81,1.81,0,0,1,.78,1q-2.7.9-2.58.9Zm-6.54,22V13.8q0-.24.72-1a1.65,1.65,0,0,1,1,1.68l-.24,14.94a4.26,4.26,0,0,0-.72.09,4.35,4.35,0,0,1-.72.09Zm25.2-28.2h-1.5l-.24,1.38a14.4,14.4,0,0,1,4.38,2.64q4.8,4.92,6,8.82.6,2,.6,8.34a57.63,57.63,0,0,1-.24,7q-.6,1.74-.9,2.46-.3,1.2-.36,1.62a23.17,23.17,0,0,1-7.38,8.7v1l.9.18q5.1-2.28,7.86-9.18a29.11,29.11,0,0,0,2.22-11.16,41,41,0,0,0-.72-7.8l-.39-1q-.15-.39-.27-.63a11.11,11.11,0,0,0-.48-2.37,18.32,18.32,0,0,0-.84-2.13q-.42-.72-2.58-3.9a10.44,10.44,0,0,0-2.94-2.34q-2.34-1.62-3.12-1.62Zm2.58,5.4H103L102.73,8a2.2,2.2,0,0,0,1.8,1.14,1,1,0,0,0,.72-.24v-1l-1.08-1.08Zm2.64,4.8a1.9,1.9,0,0,0-1.32.66v1.56a1.9,1.9,0,0,0,1.32.66,2.34,2.34,0,0,0,1.56-.84v-1.2a3,3,0,0,0-1.56-.84Zm-2.7,8.46a1.09,1.09,0,0,0-.9.48q0,.6-.12,1.74T103,24.06a6.14,6.14,0,0,0,.48,2.1h1.14a4.39,4.39,0,0,0,.66-2.7q0-3.36-1.14-3.36Zm4,1.92a1.85,1.85,0,0,0-1,.39c-.38.26-.57.51-.57.75V29a1.64,1.64,0,0,0,1.2.72,1.17,1.17,0,0,0,1.2-.72,9.65,9.65,0,0,0,.9-3.48q0-3.48-1.74-3.48ZM99.67,43a8.58,8.58,0,0,0-2.94.84v1l.3.3h2.46l1.38-.72v-.9a4.24,4.24,0,0,0-1.2-.48Z"/><path d="M125.35.72a1.26,1.26,0,0,0-.9.24,3.06,3.06,0,0,0,.6,1.9l-.72.52a4.32,4.32,0,0,1-.54.34,17.26,17.26,0,0,0-2.1,2.15,3.29,3.29,0,0,1-.3-1.1A3.17,3.17,0,0,1,122,3.11l.66-1a2.75,2.75,0,0,0,.3-.55q-.84-.86-1.32-.86t-1.44,1.35a5.07,5.07,0,0,0-1,1.78,17.32,17.32,0,0,0,0,2.08q.06.67.06,1.16v.74a1.25,1.25,0,0,1-.18.52,1.29,1.29,0,0,0-.18.58V41a10.58,10.58,0,0,0,.15,1.47,10.72,10.72,0,0,1,.15,1.47q0,.68,1.26,1.78a4.18,4.18,0,0,0,2,1,.88.88,0,0,0,.66-.25V45.39a6.08,6.08,0,0,1-2-2.27,1.42,1.42,0,0,1,1-.49,3.69,3.69,0,0,1,.69.09,3.75,3.75,0,0,0,.69.09q1.5,0,1.5-2.82V38.59q0-2.39,1.08-2.57l.54.55v5.94a1.45,1.45,0,0,1-.15.46l-.33.74c-.12.27-.22.51-.3.73a1.68,1.68,0,0,0-.12.46q0,1.29,1,1.29,1.92,0,1.92-3.86,0-.49-.06-1.38t-.06-1.38a3.66,3.66,0,0,1,.18-.92,3.63,3.63,0,0,0,.18-.86V9.05Q128.95.72,125.35.72Zm.36,5.39a1.49,1.49,0,0,1,.6,1,1.2,1.2,0,0,1-.84.43Zm1.24,27.82-.06-.07-1,.18c-1.25.21-2.74,1.18-2.74,4.55V40a5.84,5.84,0,0,1,0,.72,4.83,4.83,0,0,0-.84-.08,3.2,3.2,0,0,0-1.3.28V27l2.5,2.12.49-3.63a22.44,22.44,0,0,0,.2-3,23.84,23.84,0,0,0-.2-3l-.52-4.1-2.46,2.51V9.3l.22.54,2.12-2.75.3-.36-.08.46-.4,2.34h2.37a2.93,2.93,0,0,0,1.48-.41Zm-5-14.16a21.74,21.74,0,0,1,.18,2.76,20.33,20.33,0,0,1-.18,2.7c-.48-.41-.72-.74-.72-1a4.08,4.08,0,0,1,.21-1,2.63,2.63,0,0,0,.15-1.07Q121.45,20.27,121.93,19.78Z"/><path d="M168.43,5.6h0M167.8,6a7.26,7.26,0,0,1,.11,1.36h0a3,3,0,0,0-1.08-.47l-1.11-.22.15-.47a3.18,3.18,0,0,0,.8.1A2.41,2.41,0,0,0,167.8,6m-2.13.52h0m-22.13.6h0m-5.24.1.3.16a2.38,2.38,0,0,1,.81,1l.15.28-.46.46v2.27a2.72,2.72,0,0,0,.52,1.5l.41.6.25.36a16.72,16.72,0,0,0,.58,2.7l.57,2,2-.64,1.06-.35v0l.15.38.29.29.45.45-.45.45a3,3,0,0,0-1.12,2.07v10l0,0a3.77,3.77,0,0,0-.28,1.15,10.52,10.52,0,0,0,0,1.49c0,.36,0,.74.06,1.17a2.78,2.78,0,0,0-.49,0,3.33,3.33,0,0,0-.61.06l-1.63.31v1.49l0,.09a3.92,3.92,0,0,0-.27,1.34,3.06,3.06,0,0,0,.11.8,2.76,2.76,0,0,0-1.95-1h-.7V11.22a6.25,6.25,0,0,1,0-.68c0-.37.08-.76.12-1.2s.08-.8.12-1.18.06-.7.07-1m32.42,16.09v2.12l-1.29,1.29a4.48,4.48,0,0,1-.05-.58c0-.32,0-.55,0-.71l.19-.12.2-.78a3.08,3.08,0,0,0,.08-.94l.23.28.61-.55M159.38,30l.18.15.32.73-.65-.43.15-.45M141.44,40.63q.19.22.41.45l1.37,1.37-.32.54a9.3,9.3,0,0,1-1.6.79H141a2.89,2.89,0,0,0,.21-.81c0-.35.1-1,.19-2.07l0-.27M167,.18q-2.34,0-2.82,1.92,0,.84,0,1.44t.09,1.08l-.6,1.86q0,1-.18,5.88a2.85,2.85,0,0,1,.06.66V14.1q.06,1.68.06,3.12v2.7q0,3.42.06,3.6a1,1,0,0,1-1,.9q-1.2,0-5.4-6.12-2.1-3-3.48-5t-2.1-3q-1.26-1.56-2.16-2.61T148.13,6q-2.82-3.42-3.78-4.68a3.76,3.76,0,0,0-1.92-.84l-1.5-.21a8.52,8.52,0,0,0-1.14-.09,3,3,0,0,0-3.3,2.34,17.54,17.54,0,0,0-.18,4.5,9.25,9.25,0,0,1-.06.93q-.06.57-.12,1.2T136,10.32a8.18,8.18,0,0,0-.06.9V38.88a15.43,15.43,0,0,0,.18,1.77l.48,3.45a4.44,4.44,0,0,0,1.86,1.17,6.5,6.5,0,0,0,2.28.51,4.2,4.2,0,0,0,1.08-.06,8,8,0,0,0,2.64-1.44c.24-.4.45-.76.63-1.08l.45-.78a7.63,7.63,0,0,0,0-1.14c0-.32,0-.62-.09-.9a7.31,7.31,0,0,0,.24-2.16q0-.72-.18-2.82c0-.6-.07-1.14-.09-1.62a8.32,8.32,0,0,1,0-1.26,1.82,1.82,0,0,1,.15-.57,1.87,1.87,0,0,0,.15-.63V21.18q0-.12.54-.66a10.82,10.82,0,0,1,1.35,1.35q.63.75,1.23,1.59,1.26,2,1.5,2.4,1.74,2.1,2.94,3.6l1.86,2.34q.6.9,1,1.56l.6,1.08,5.7,7.14q3.06,3.84,6.66,3.84,3.18,0,3.18-2.34a1.07,1.07,0,0,0-.24-.78h-.9A2.84,2.84,0,0,1,169,43.56,5.15,5.15,0,0,1,165.65,42a6.27,6.27,0,0,1-2.16-3.24l.3-.36q2.94,2,3.72,2,1.38,0,2-2,.18-.66.36-1.26c.12-.4.22-.8.3-1.2a5.55,5.55,0,0,1,.24,1q.12.66.24,1.8a5.55,5.55,0,0,0,.72,2.52h.9a2.11,2.11,0,0,0,.48-.66V3.12a3.07,3.07,0,0,0-.66-1.89,2,2,0,0,0-1.62-.87,1.24,1.24,0,0,0-1.2.72l.75,1.2a7.47,7.47,0,0,0,.63.9,3.46,3.46,0,0,1,.06,1.5c0,.32-.07.59-.09.81s0,.41,0,.57a1.83,1.83,0,0,0,.18.66l.24.42a.8.8,0,0,1-.24.9s0,.09.15.15a.35.35,0,0,1,.15.33,34.35,34.35,0,0,1-.72,5.76q.12.24.24.45c.08.14.16.27.24.39a2.51,2.51,0,0,1-.09,1,4.09,4.09,0,0,0-.15.84,7.21,7.21,0,0,0,.18,1.35,7.17,7.17,0,0,1,.18,1.35,1.71,1.71,0,0,1-.6,1.32l-.3-.36q-.48-8.52-.36-10.8a9,9,0,0,1,.12-1.17,9.28,9.28,0,0,0,.12-1.29q0-3.66-1.86-3.66a1.61,1.61,0,0,0-.78.3,1.87,1.87,0,0,1-.6.3q-.48,0-.54-.24l-.06-.3A1,1,0,0,1,166,3.3q0-.72,1-1.14a8.55,8.55,0,0,0,1.68-.78V.6A2.9,2.9,0,0,0,167,.18Zm-25.8,7.2a4.27,4.27,0,0,0-1.62-1.8q-1.74-.9-1.74-1.8a1.79,1.79,0,0,1,.84-1.32,2.6,2.6,0,0,1,1.56-.66q2.28,0,6.42,4.56t4.14,6.9q0,.84-1.08.84-.42,0-1.8-1.38T146,11.28q-.84,0-.84.78a5.68,5.68,0,0,0,.6,2.28,4.41,4.41,0,0,0,1.38,1.86q1,.66,1.59,1.11t.69.57c.08.32.14.59.18.81s.08.43.12.63q.84,1,1.56,1.68l1.2,1.2q.66,1.14,1.14,2t.84,1.68l.72.72a7,7,0,0,0,.6.54l.84,1.56c.24.44.46.82.66,1.14a2.67,2.67,0,0,1-.3.54q-1.62-2.34-2.58-4l-2.7-3.12q-1.2-1.38-2.16-2.4-.3-.48-.54-.93a7.48,7.48,0,0,1-.36-.75q-.78-.84-1.35-1.41l-1-1-.21-.54a4.88,4.88,0,0,0-.21-.48,1.13,1.13,0,0,0-1-.6,9.15,9.15,0,0,1-2.1.78,13.18,13.18,0,0,1-.54-2.7.88.88,0,0,0-.18-.39l-.39-.57-.39-.57a.88.88,0,0,1-.18-.39V9.9A13.66,13.66,0,0,1,143,9.72q1.62-.12,2-.84a3.18,3.18,0,0,0-.6-2.16q-.84-1.38-1.62-1.38t-1.62,2Zm23,22.62a1.68,1.68,0,0,0,1.32-.78q.18-2.64.27-4.2a15.43,15.43,0,0,0,0-2.1q-.06-1.14-.06-2.82t.12-4Q166,11.4,166,9.3l.42-.48q.6.12,1.44,1.44l-.42,1.14a6.59,6.59,0,0,0,.18,1q.12.45.24.81a2.74,2.74,0,0,1,0,.75c0,.34-.07.79-.15,1.35s-.15,1.15-.21,1.53a6.29,6.29,0,0,0-.09.75,16.64,16.64,0,0,0,.42,3.9q-.06.42-.09.75c0,.22,0,.41,0,.57a1.49,1.49,0,0,0,.12.66,1.22,1.22,0,0,1,0,.54q-.48.3-.48,2.1a14.67,14.67,0,0,0,.48,2.94,11.77,11.77,0,0,1,.54,2.82q0,.66-1.44,1.38a5.88,5.88,0,0,1-2.16.66q-1.44,0-3.42-4.56-.24-.78-2.28-1.86A8.06,8.06,0,0,1,157,26a7.28,7.28,0,0,0-2.76-5q-1.2-1.32-2-2.37t-1.44-1.89q.6-1.44,1.38-1.44,1.32,0,4,5Q158,23,159.53,24.9t2.64,3.24a8.46,8.46,0,0,0,.66,1.32,1.57,1.57,0,0,0,1.32.54Zm-.36-7.2a1,1,0,0,1-.06.42l.06-.42Zm6.54,13a27.82,27.82,0,0,1-.72-6q0-.42,1-1.44.24,1.92.33,3.18t.09,1.92a23.08,23.08,0,0,1-.72,2.34Zm-8,1.16q-1,0-2.73-2.66l.24-1a5.29,5.29,0,0,1,1.56,1.68q.24.48,1.08,2l-.15,0Zm4.41,0q-1.2-.48-1.2-1.14a.91.91,0,0,1,.24-.54,1.89,1.89,0,0,1,1.38.72,1.32,1.32,0,0,1-.42,1Zm-23.46,2.7a2.14,2.14,0,0,1-.78-1.38,2.11,2.11,0,0,1,.15-.66,2.1,2.1,0,0,0,.15-.6l.24,0q.72,0,.72,1a4.55,4.55,0,0,1-.48,1.68ZM139.2,43a.75.75,0,0,1,0-.24q-1.2-.48-1.2-1.32a1.9,1.9,0,0,1,.66-1.32q.12,0,.78.66-.12,1.5-.18,2a.79.79,0,0,1,0,.24Z"/><path d="M187.15,11.28q0-1.44-1-1.44-2.16,0-2.16,1.5a1.22,1.22,0,0,0,.51,1,1.63,1.63,0,0,0,1,.42Q187.15,12.72,187.15,11.28Z"/><path d="M189.13,11.16a9.1,9.1,0,0,0-2.64,6.12,2.76,2.76,0,0,0,.24,1.32h1a42.1,42.1,0,0,1,2.7-5.76,12.19,12.19,0,0,1,3.9-3.24q.12-.06,1-.39l2.73-1V7l-.24-.24-1.59.54-1.17.42A10.06,10.06,0,0,0,189.13,11.16Z"/><path d="M187.09,26.46V24.54h-1.56v1.2a1,1,0,0,0,.42,1Z"/><path d="M197.77,4l.18.54A3.61,3.61,0,0,0,199,5l1.14-1.5a3.5,3.5,0,0,1,2.82-1.56h1.14a.77.77,0,0,1,.72.84q-.9.84-1.44,1.26V5.34q3.3,1.32,4.8,1.74,1.32.66,1.38.72a1.43,1.43,0,0,0,1.26-.9,11.84,11.84,0,0,1,.63-1,4.32,4.32,0,0,1,.39-.51q.72.78,1.29,1.5a15.58,15.58,0,0,1,1,1.5q-1,1-1,1.56a4.71,4.71,0,0,0,.48,1.14,3.46,3.46,0,0,1,.54,1,1.2,1.2,0,0,1-.39.78,1.08,1.08,0,0,1-.75.42q-.78,0-2.4-1.68a26.83,26.83,0,0,0-3.48-3.06,9.71,9.71,0,0,0-5.4-1.74,5.53,5.53,0,0,0-2,.24v1.2q5.22.18,10.74,6.24a3.37,3.37,0,0,0,2.4.66,7.75,7.75,0,0,0,2-.36q1.68-.42,1.86-1.14a1.81,1.81,0,0,1,.15-.57q.15-.39.3-.84c.1-.3.19-.59.27-.87a2.58,2.58,0,0,0,.12-.6,4.06,4.06,0,0,0-1.14-2.64q-.9-4-6.18-6.18a20,20,0,0,0-8-1.8q-.3,0-.93.06c-.42,0-.73.06-.93.06q-.84-.06-1.32-.06h-.6q-1.68.24-1.68,1.5a4.34,4.34,0,0,0,.54,1.44A4.12,4.12,0,0,1,197.77,4Z"/><path d="M179.11,20.82a8.39,8.39,0,0,0,1.26-3.12q.54-.54.93-1t.63-.72a8.21,8.21,0,0,0-.48-2.64,6.49,6.49,0,0,1,1.26-2.16,19.77,19.77,0,0,1,2.16-3.42q1.92-2.46,3.36-2.46a9.15,9.15,0,0,1,1.68.84,9,9,0,0,0,1.68.84,1.78,1.78,0,0,0,.54-.06,2.11,2.11,0,0,0,.78-1.68l-.12-1.62a10,10,0,0,1,2-1.56v-1L194.53.9h-1a9.39,9.39,0,0,0-2,.54,9.3,9.3,0,0,0-2.94,1.26,5,5,0,0,0-2.7,1.38q-1.44,1.5-2.7,2.88t-2.28,2.7a4.53,4.53,0,0,0-.78,2.22,4.89,4.89,0,0,1-.24,1.5q-.6.9-.66,1c0,.28-.07.51-.09.69a4.51,4.51,0,0,0,0,.51A17.41,17.41,0,0,0,178,19.32Q178,20.1,179.11,20.82Z"/><path d="M187.09,20l-1-.24a1.49,1.49,0,0,0-.24,1.38,1.62,1.62,0,0,0,1.2-.42Z"/><path d="M219.85,37.08q-.18-.6-.3-1.14a4.23,4.23,0,0,1-.12-.9,21.23,21.23,0,0,1,.42-3.66,21.33,21.33,0,0,0,.42-3.66,28.52,28.52,0,0,0-.48-3.06q-.66-3.12-1.44-3.72a5.25,5.25,0,0,0-3.24-1.14h-3.18q-1.32,0-2.16.06a1.64,1.64,0,0,0-.6.15,1.59,1.59,0,0,1-.54.15A2.05,2.05,0,0,1,208,20a2.05,2.05,0,0,0-.69-.18,2.29,2.29,0,0,0-.72.18,2.33,2.33,0,0,1-.66.18,6.13,6.13,0,0,1-.93-.09l-1.2-.21-1.2-.21a6.28,6.28,0,0,0-.93-.09,5.92,5.92,0,0,0-1.86.54,15.42,15.42,0,0,0-2.34,1.08,2.47,2.47,0,0,0-1,2.16,1,1,0,0,0,.24.72h1.14q1.68-2.22,2.46-2.22.54,0,1,.9l-1.14,1.14-.12,1a.87.87,0,0,1-.9.78,1.63,1.63,0,0,1-.69-.39,1.64,1.64,0,0,0-.69-.39q-.72,0-.72,1.26a2.15,2.15,0,0,0,.9,1.56,2.66,2.66,0,0,0,1.68.78,8,8,0,0,0,1-.09,8.19,8.19,0,0,1,1-.09,5,5,0,0,1,1.14.21,5,5,0,0,0,1.08.21,5.71,5.71,0,0,0,1.26-.21,5.76,5.76,0,0,1,1.26-.21,8.69,8.69,0,0,0,1.8-.06,2.7,2.7,0,0,1,1.56,1.62,3.49,3.49,0,0,0,.48.72,1.64,1.64,0,0,1,.42.78q0,2.76-3.66,4.56a14.14,14.14,0,0,1-6.12,1.56,25.44,25.44,0,0,1-4.5-.24,9,9,0,0,1-1.26-1,3.06,3.06,0,0,0-.6-.06h-.36a12.83,12.83,0,0,1-5.22-5.4c-.16-.44-.29-.82-.39-1.14s-.19-.58-.27-.78q-.54-1.62-1.14-1.62a.92.92,0,0,0-.66.3,2.22,2.22,0,0,1-.12.57,2.17,2.17,0,0,0-.12.57A9.93,9.93,0,0,0,187.57,33a2.83,2.83,0,0,0,.3.42q.24.3.66.78a4.82,4.82,0,0,1,.9,1.32q.24,1.8.36,3.12a23.29,23.29,0,0,0,2.82,3.24,9.45,9.45,0,0,0,1.86.54q1.62.24,2,.84a1.82,1.82,0,0,1-1.26.72,25.2,25.2,0,0,1-4.32-1.74q-4.2-1.86-4.2-3.18a3.42,3.42,0,0,1,.42-1.29,3.47,3.47,0,0,0,.42-1.23,3.91,3.91,0,0,0-.9-2q-.9-1.26-1.62-1.26a1.4,1.4,0,0,0-1,.24,3.05,3.05,0,0,1,.06.6v.54a1.16,1.16,0,0,1-.72,1,5.58,5.58,0,0,1-1.68-2.16,31.49,31.49,0,0,0-1.74-4.8,6.85,6.85,0,0,1,.6-1.2,5,5,0,0,0,.66-1.38,4.32,4.32,0,0,0-.72-1.32q-.9-1.32-1.62-1.32c-.32,0-.5.08-.54.24q-.3,1.38-.42,2.16a5.28,5.28,0,0,1-.18.9,2,2,0,0,0,.36.75,2.4,2.4,0,0,1,.36.69,16,16,0,0,0,2.16,7.5q4.2,7.8,11.46,9.36a1.76,1.76,0,0,1,.66.27,1.69,1.69,0,0,0,.72.27,2.48,2.48,0,0,0,.54-.09,2.45,2.45,0,0,1,.54-.09,11.55,11.55,0,0,1,3.12.6,11.63,11.63,0,0,0,3.18.6l3.36-.6v-1a5.31,5.31,0,0,0-2.1-.78,6.93,6.93,0,0,1-2.16-1,3.13,3.13,0,0,1,2.4-1,7.62,7.62,0,0,1,1.38.18,7.62,7.62,0,0,0,1.38.18q1.62,0,4.32-2.34a3.25,3.25,0,0,1,1.74-.48q1,0,2.58,3.24l.48.48a2.55,2.55,0,0,1,.21.24l.15.18-.54.54a5.15,5.15,0,0,1-1.38-1,2.91,2.91,0,0,0-1.56-.9,13.9,13.9,0,0,0-5.7,1.5v1l.3.24h3a1,1,0,0,0,.6-.33,1,1,0,0,1,.6-.33l1.62.9a4.83,4.83,0,0,0,2.64,1.14h2.4q.48,0,1.44-1a4.32,4.32,0,0,0,1.14-1.5,16.72,16.72,0,0,0,1.14-5.22,4.29,4.29,0,0,0-.12-.9Q220,37.68,219.85,37.08ZM201.67,40a19.38,19.38,0,0,1-2.76,1.2,7.51,7.51,0,0,0-1,.09,7.37,7.37,0,0,1-1,.09,20.06,20.06,0,0,1-3.66-2.22l-.12-.24a.8.8,0,0,1-.18-.48c0-.16.12-.34.36-.54a9.18,9.18,0,0,0,4,1.2q.3.06,1.41.18l3,.36Zm11-3.6A20.75,20.75,0,0,1,209.17,38a6,6,0,0,0-.69.45l-.51.39a13.33,13.33,0,0,1-3.6,1.32,4.15,4.15,0,0,1-1.62-.54q5-1.5,6.18-2,1.08-.84,2-1.59t1.53-1.41a1.77,1.77,0,0,1,.48,1A1.32,1.32,0,0,1,212.71,36.36Zm-.48-11.76L210.31,26a3.68,3.68,0,0,1-2.16.72q-5.22,0-5.82-1,.72-1.92,1.68-1.92a1.4,1.4,0,0,1,.39.09,1.44,1.44,0,0,0,.39.09,5.5,5.5,0,0,0,1.62-.78A5.49,5.49,0,0,1,208,22.5a3.29,3.29,0,0,1,1.11.39,3.19,3.19,0,0,0,1.17.39,2.17,2.17,0,0,0,.57-.12,2.25,2.25,0,0,1,.57-.12,4.73,4.73,0,0,1,2,1.2A3.62,3.62,0,0,1,212.23,24.6Zm4,8.64.48-.66q.72.72.72,1a1.31,1.31,0,0,1-.78.48A1.17,1.17,0,0,1,216.19,33.24Zm1.14,8.64h-.42a3.46,3.46,0,0,1-.36-1.44,2,2,0,0,1,.72-1.32,4.94,4.94,0,0,1,.24,1.56A4.15,4.15,0,0,1,217.33,41.88Zm-1-12.9a1.31,1.31,0,0,1-.81-.39,1,1,0,0,1-.45-.69,4.44,4.44,0,0,1,.78-1.2q.84-1.26.9-1.32a3.06,3.06,0,0,0,.24-1.5l.36.24a14.23,14.23,0,0,1,.36,2.64Q217.75,29,216.37,29Z"/><path d="M188.71,7.62l-.9-.24q-.42.24-.24,1.2h.9Z"/><path d="M30.19,82.58a2.08,2.08,0,0,1-1.38-.9.65.65,0,0,1-.06-.3,2.79,2.79,0,0,0-.06-.54q-.6-.84-1-1.41c-.26-.38-.49-.69-.69-.93a10.32,10.32,0,0,0-2-2.1,18.49,18.49,0,0,0-2.88-.72,21.6,21.6,0,0,0-7.14-1,14.69,14.69,0,0,0-2.1.06,2.81,2.81,0,0,0-1.62,2.34l-.18,23.88q0,.78,1.56,2.34h.54q1-.78,3.78-.78a3.34,3.34,0,0,1,.93.21,3.31,3.31,0,0,0,.93.21,9.88,9.88,0,0,0,9.3-5.58s.46-.68,1.26-1.92h1.14a1.18,1.18,0,0,1,.24.84,11.18,11.18,0,0,1-1.2,3.18,8.06,8.06,0,0,1-1.74,2.76l-2.13.81-3.27,1.23a1.64,1.64,0,0,0-1.14,1.08,7.31,7.31,0,0,1-.36,1.5,18.33,18.33,0,0,0-1.8,1.8,11.26,11.26,0,0,0,2.28,2v.78a2.31,2.31,0,0,1-1.5.84,8.66,8.66,0,0,1-.9-.06L17.89,112l-1.14-.15a8.6,8.6,0,0,0-.9-.06,7.18,7.18,0,0,0-1.77.33,7.19,7.19,0,0,1-1.77.33,2.33,2.33,0,0,1-.78-.33,2.2,2.2,0,0,0-.84-.33,6.63,6.63,0,0,0-1,.12,6.67,6.67,0,0,1-1.05.12,18.86,18.86,0,0,1-3.84-.24A7.66,7.66,0,0,0,3.43,111v-.78c0-.16.16-.24.48-.24a1.39,1.39,0,0,1,.48.12,1.37,1.37,0,0,0,.48.12q1.08,0,1.56-1.44t.9-1.5a4.17,4.17,0,0,1,.78.12,4,4,0,0,0,.78.12,2.28,2.28,0,0,0,1.35-.45,1.33,1.33,0,0,0,.63-1.11,2.91,2.91,0,0,0-1.32-2.1,3.87,3.87,0,0,0-2.4-1.14q-.78,1.2-1.62,2.4-1.62,2.4-2.76,2.4a1.24,1.24,0,0,1-1-.63,2.05,2.05,0,0,1-.45-1.17V71.48a4,4,0,0,0,.18-.57c.08-.3.2-.67.36-1.11a5.57,5.57,0,0,1-.09-.66,3.94,3.94,0,0,1,0-.84,2.86,2.86,0,0,1,3.12-2.16,3.36,3.36,0,0,1,.93.21,3.36,3.36,0,0,0,.87.21q.48-.12,1.74-.54A7.67,7.67,0,0,1,9.67,66h2.46q2.52,0,5.49.12t6.45.36l.3.18a3.53,3.53,0,0,0,.42.24v.9a2.09,2.09,0,0,1-.6.48,10.28,10.28,0,0,0-1.29-.09q-1,0-2.73-.15l-.36.36a3.87,3.87,0,0,0,1.26.72l1.62.66v1.14a5.88,5.88,0,0,1-1.44.18,2.74,2.74,0,0,0-1.68.6v.84q.48.78,2.52,1,3.12.48,3.48.6,1.86.72,3.78,3.78A17.14,17.14,0,0,1,31.21,82,1.37,1.37,0,0,1,30.19,82.58ZM3.91,78.8q-.72.72-.72,1V95.6a4.25,4.25,0,0,0,.72-.09,4.35,4.35,0,0,1,.72-.09l.24-14.94A1.65,1.65,0,0,0,3.91,78.8Zm7.62-7.11a2.14,2.14,0,0,0-1.2-.57,1.89,1.89,0,0,0-1.08.57q-.66.57-.66.93a.92.92,0,0,0,.39.69,1.18,1.18,0,0,0,.75.33q-.12,0,2.58-.9A1.81,1.81,0,0,0,11.53,71.69ZM26.29,111H23.83l-.3-.3v-1a8.59,8.59,0,0,1,2.94-.84,4.21,4.21,0,0,1,1.2.48v.9Zm11.22-10.68q-2.76,6.9-7.86,9.18l-.9-.18v-1a23.19,23.19,0,0,0,7.38-8.7q.06-.42.36-1.62.3-.72.9-2.46a57.55,57.55,0,0,0,.24-7q0-6.36-.6-8.34-1.2-3.9-6-8.82a14.4,14.4,0,0,0-4.38-2.64l.24-1.38h1.5q.78,0,3.12,1.62a10.5,10.5,0,0,1,2.94,2.34q2.16,3.18,2.58,3.9a18.59,18.59,0,0,1,.84,2.13,11.17,11.17,0,0,1,.48,2.37c.08.16.17.37.27.63l.39,1a41,41,0,0,1,.72,7.8A29.09,29.09,0,0,1,37.51,100.34ZM31.33,75.08a2.2,2.2,0,0,1-1.8-1.14l.3-1.14H31l1.08,1.08v1A1,1,0,0,1,31.33,75.08Zm.06,17H30.25a6.15,6.15,0,0,1-.48-2.1q0-.6.12-1.74T30,86.54a1.09,1.09,0,0,1,.9-.48q1.14,0,1.14,3.36A4.39,4.39,0,0,1,31.39,92.12Zm2.22-11.64a1.9,1.9,0,0,1-1.32-.66V78.26a1.9,1.9,0,0,1,1.32-.66,3,3,0,0,1,1.56.84v1.2A2.34,2.34,0,0,1,33.61,80.48Zm2.1,14.46a1.17,1.17,0,0,1-1.2.72,1.64,1.64,0,0,1-1.2-.72V89.12c0-.24.19-.49.57-.75a1.84,1.84,0,0,1,1-.39q1.74,0,1.74,3.48A9.66,9.66,0,0,1,35.71,94.94Z"/><path d="M62.83,83.84l-1.89,0L58.69,84v1.5q6.78,0,6.84-.06L65.29,84q-.42-.06-1-.09T62.83,83.84Z"/><polygon points="60.19 92.6 65.53 92.6 65.53 91.58 65.05 91.1 59.95 91.1 60.19 92.6"/><path d="M71.11,86.18a1.25,1.25,0,0,0-.3-.75,3.46,3.46,0,0,0-.72-.69,5.06,5.06,0,0,0-.9-.51,2.14,2.14,0,0,0-.84-.21,1.46,1.46,0,0,0-1,.42v1a9.25,9.25,0,0,1,1.44,1.14q.78.72,1.14.72a1.56,1.56,0,0,0,1.14-.48Z"/><path d="M76.39,108.5q-.6.42-1,.72l-.63.48q-1.74.12-3.12.18t-2.4.06q-1.74,0-2-.66a20.94,20.94,0,0,1,4.8-.42,1.7,1.7,0,0,0,1.32-1.26v-1.26c0-.64.32-1,.84-1a5.8,5.8,0,0,1,1.32.66,5.18,5.18,0,0,0,1.38.6,1.34,1.34,0,0,0,.9-.48A3.62,3.62,0,0,0,77,104.3q-.72-1.2-1.38-1.2a4.27,4.27,0,0,0-1.08.21,4.24,4.24,0,0,1-1.08.21,32.36,32.36,0,0,1-3.42-.06,1.37,1.37,0,0,1-.36-.24l-.24-.24-4.92-.3a7.88,7.88,0,0,0-3.06.3,4.58,4.58,0,0,0-.66.27,2.53,2.53,0,0,1-.84.27,2.4,2.4,0,0,1-1-.24l-.66-.18A1.77,1.77,0,0,1,58,103a27.29,27.29,0,0,0-4.56-.36,2.88,2.88,0,0,1-.9-1.08,1.83,1.83,0,0,1,.09-1,5,5,0,0,0,.21-.81,4.24,4.24,0,0,0-.18-.9,2.35,2.35,0,0,1-.12-1c.08-.4.14-.72.18-1a3.64,3.64,0,0,1,.12-.54l-.54-2.16q0-.42,1.14-1.38l1.5-.3V91.34c.08,0,.06,0-.06-.06H51.91a1.35,1.35,0,0,0-1.5,1.14,2.9,2.9,0,0,0,.12.63,2.92,2.92,0,0,1,.12.63l-.18.18-.12.12q-.78-.18-.78-2.28a2,2,0,0,1,.66-1.47,2.11,2.11,0,0,1,1.5-.63,3.93,3.93,0,0,1,1,.21,3.93,3.93,0,0,0,1.05.21l1.86-.24a11.9,11.9,0,0,1,2.7-.06l1.17.09a4.7,4.7,0,0,0,.93,0l1.08-.36a2.13,2.13,0,0,1,.51.09l.69.21.69.21A2.06,2.06,0,0,0,64,90q3.84-.24,3.84-1.68,0-1.08-2.58-1.62a15.67,15.67,0,0,0-3.42-.42q-3.6,0-3.84.06-2.82.48-3.42.54a5,5,0,0,1-1.2-.21,5.06,5.06,0,0,0-1.2-.21,4.81,4.81,0,0,0-1.5.54,5.66,5.66,0,0,1-1.5.54,1,1,0,0,1-.66-.36,9.6,9.6,0,0,1,.84-2.34,5.14,5.14,0,0,0-1-2.22,2.06,2.06,0,0,1,1.32-.48c.28,0,.4,0,.36.06a4.35,4.35,0,0,1,.54,1.23,2.84,2.84,0,0,0,.72,1.29q.78.72,3.36.72a3.48,3.48,0,0,0,1.56-.24V84.08q-2.1-.42-2.4-.54a2.57,2.57,0,0,1-1.2-2,12,12,0,0,1-.09-1.2c0-.52,0-1.18,0-2A12.23,12.23,0,0,1,52.63,77a3.34,3.34,0,0,0,.06-1.38,4.1,4.1,0,0,1,.54-.48,2.66,2.66,0,0,0,1.23-.06,6.44,6.44,0,0,1,1-.18H72.67a5.73,5.73,0,0,0,2.7-.6,2.44,2.44,0,0,0,1.56-2.1q0-1.26-.9-1.26c-.24,0-.64.26-1.2.78a5.74,5.74,0,0,1-1.14.84,26,26,0,0,1-2.82.33q-1.44.09-3,.09h-7.5q-2.16,0-2.7-.72c.24-.24.36-.42.36-.54h2.82a15.17,15.17,0,0,0,2-.6q.36.06,1,.24a4.5,4.5,0,0,0,1.05.18,3.31,3.31,0,0,0,.93-.21,3.38,3.38,0,0,1,.87-.21,5.26,5.26,0,0,1,1.41.33,5.25,5.25,0,0,0,1.41.33A5,5,0,0,0,73,70.22l1.62-1.56a1.25,1.25,0,0,1,.54.21,1.24,1.24,0,0,0,.54.21,1,1,0,0,0,1-.72,2.61,2.61,0,0,0-.69-1.14A2.08,2.08,0,0,0,75,66.44q-1.38-.24-2.34-.36A12.74,12.74,0,0,0,71.23,66H50.71A13.5,13.5,0,0,0,47.29,67V74.3c0,.44.08.66.12.66a4.62,4.62,0,0,0-.78,2.22.86.86,0,0,0,.18.39l.36.57.36.57a.87.87,0,0,1,.18.39q0,1.2-1.08,1.2Q45,80.3,45,76.64V70.4A3.42,3.42,0,0,1,45.25,69a5.22,5.22,0,0,1,.51-.84,2.18,2.18,0,0,0,.45-.9q0-.9-1.14-.9-2.34,0-2.34,7.56V87.8a27.8,27.8,0,0,0,.66,3.84,1,1,0,0,0,.78.48,1.16,1.16,0,0,0,.45-.12,1.33,1.33,0,0,1,.33-.12q0-4.44.18-6.54a4.51,4.51,0,0,0-.54-1,1.14,1.14,0,0,1,.9-1.14q.72.36.72.84a1,1,0,0,1-.21.54,1.24,1.24,0,0,0-.21.36,31.84,31.84,0,0,1,.09,3.27q0,2-.15,4.59l-.24.36h-.54a1.32,1.32,0,0,0-1.14-.6q-.9.72-.9,8.1,0,7.2.48,8,.18.24.78.24a1.07,1.07,0,0,0,.78-.24q.12-2.64.18-4.23t.06-2.25a2.39,2.39,0,0,1,1.74-2.64q1,1,1,1.26a6.21,6.21,0,0,1-.48,1.26,5.35,5.35,0,0,0-.48,1.32,4.29,4.29,0,0,0,0,1q0,.75.09,2a16.2,16.2,0,0,1-.12,2.82.69.69,0,0,1-.21.36l-.45.54q-.24.3-.42.57a1.11,1.11,0,0,0-.18.33,1.43,1.43,0,0,0,.48,1h.66q.48,0,1.35.09c.58.06,1,.09,1.35.09a4.62,4.62,0,0,0,1.11-.21,4.68,4.68,0,0,1,1-.21l5.64.24a1.82,1.82,0,0,0,.63-.21,1.82,1.82,0,0,1,.69-.21,1.31,1.31,0,0,1,.66.3,1.33,1.33,0,0,0,.72.3,2.75,2.75,0,0,0,1-.3,2.8,2.8,0,0,1,.9-.3,13.14,13.14,0,0,1,1.41.09l1.89.21,2,.21a13.11,13.11,0,0,0,1.41.09,3.64,3.64,0,0,0,1.23-.39,3.65,3.65,0,0,1,1.23-.39,3.64,3.64,0,0,1,1.29.39,3.62,3.62,0,0,0,1.23.39,4.34,4.34,0,0,0,2.52-1,2.74,2.74,0,0,0,1.38-2,1,1,0,0,0-.24-.72ZM49.54,72.77a1.88,1.88,0,0,1,1.41-.69,1.27,1.27,0,0,1,.66.18,12,12,0,0,0-.9,2.46,1.56,1.56,0,0,0,.06.48l-.48.48q-1.38-.54-1.38-1.44A2.16,2.16,0,0,1,49.54,72.77ZM45.91,96.44l-.48-.24v-.78A1.14,1.14,0,0,1,46,96,.5.5,0,0,1,45.91,96.44Zm5,9.18a1.24,1.24,0,0,1-.54-.21,5.22,5.22,0,0,1-.69-.48,4.86,4.86,0,0,1-.57-.54.76.76,0,0,1-.24-.45,7,7,0,0,1,1-2.7,39,39,0,0,1,1.56,3.84Z"/><path d="M68.23,91.4a1,1,0,0,0,.3.72,4.73,4.73,0,0,0,1.56-.78q.84-.6.84-1.2a1,1,0,0,0-.24-.72H69.55A8.82,8.82,0,0,0,68.23,91.4Z"/><path d="M113.85,94.88a3,3,0,0,0-.84,2.46,2.62,2.62,0,0,0,.48,1.68h1.32a8.27,8.27,0,0,1,.12-1.14,8.34,8.34,0,0,0,.12-1.14Q115,95.18,113.85,94.88Z"/><path d="M113.07,101.24q-.6,0-.84.72a9.8,9.8,0,0,1-3.36,5q-1,.48-1.71.9c-.5.28-1,.52-1.41.72q-2.4,1.26-2.4,1.8c0,.32.06.48.18.48h1.74q.66,0,3.6-1.86a16.48,16.48,0,0,0,3.42-2.52,7.52,7.52,0,0,0,1.68-3.9Q114,101.24,113.07,101.24Z"/><path d="M106.71,74.12a1.16,1.16,0,0,0,.54-.9l-.48-.48h-.9a1.34,1.34,0,0,0-.48.9l.48.48Z"/><path d="M101.73,110.36l-3.06-.18q-1.2-.06-1.8-.06l-1.26.24a1.14,1.14,0,0,0-.48,1,3.16,3.16,0,0,0,2.28,1h3.24a5.68,5.68,0,0,0,2.34-.84,1.9,1.9,0,0,0,.12-.54c-.32-.12-.59-.23-.81-.33Z"/><path d="M85.77,105.68l1.47.84a4.57,4.57,0,0,1,.93.66l2.25.54,1.89.42a6.2,6.2,0,0,0,2.7.9,4.9,4.9,0,0,0,.75-.09,4.89,4.89,0,0,1,.75-.09,5,5,0,0,1,1.2.21,5,5,0,0,0,1.2.21,2.38,2.38,0,0,0,1.5-.3,2.43,2.43,0,0,0,.66-1.8V105.5a2.08,2.08,0,0,1,1.62-1.38,12.15,12.15,0,0,0,2-.66,5.63,5.63,0,0,0,1.89-2.07,5.38,5.38,0,0,0,.81-2.67,14.56,14.56,0,0,0-.72-3.54q-.9-3.12-2-3.12a4.48,4.48,0,0,0-1.23.3,4.46,4.46,0,0,1-1.23.3,3.92,3.92,0,0,1-1.2-.54,7.5,7.5,0,0,0-.81-.45l-.51-.21q-.84-.12-1.41-.24t-1-.24q-1.2-.72-1.2-1.62,0-.66,1.56-1.92a6.83,6.83,0,0,1,2-1.26,6.79,6.79,0,0,1,1.32-.06,9.15,9.15,0,0,1,5,1.68,24.24,24.24,0,0,1,4.86,3.6q2.22,3.12,3,3.12c.32,0,.48-.1.48-.3a8.3,8.3,0,0,0-1.5-4,20.5,20.5,0,0,0-5.34-4.08A13.45,13.45,0,0,0,101.31,84a1.18,1.18,0,0,0-.48.15,1.15,1.15,0,0,1-.48.15,1.2,1.2,0,0,1-.72-.36,4,4,0,0,0-.54-.42A14.85,14.85,0,0,1,93,81.68l-1.44-.63a7.79,7.79,0,0,0-1-.39,2.72,2.72,0,0,1-1.26-2.16q0-2.22,2.64-3.42,1.8-.42,2.64-.54a2.13,2.13,0,0,1,1.32-.78,6.13,6.13,0,0,1,2.16.78,7,7,0,0,1,4.62,2.28,17.11,17.11,0,0,0,1.8,3q1.08,1.5,4,1.5,2.7,0,3.24-.72l.78-.3a4.44,4.44,0,0,0,.72-2.52,11.27,11.27,0,0,0-3.42-8,10.37,10.37,0,0,0-7.8-3.6,5.29,5.29,0,0,0-.78.09,5.46,5.46,0,0,1-.78.09.88.88,0,0,1-.57-.36c-.22-.24-.39-.36-.51-.36a6.15,6.15,0,0,1-.93-.09,11,11,0,0,1-1.14-.24c-.38-.1-.76-.18-1.14-.24a6.3,6.3,0,0,0-.93-.09q-.18,0-3.9,1.2-2,.42-3.12.72t-1.44.42A17.74,17.74,0,0,0,83,70a10.21,10.21,0,0,0-2.64,3.78q-.12,1-.21,1.71a9.21,9.21,0,0,0-.09,1.17v1.2a5.28,5.28,0,0,0,.06.84l-.18.24a16.94,16.94,0,0,0,.42,4.14q.84,3.36,4.92,5.82a20.16,20.16,0,0,0,7.38,2.76,19.69,19.69,0,0,1,2.34.9q1,.12,1.65.18l1.17.12a1,1,0,0,1,.48.18l.63.36.6.33a.94.94,0,0,0,.39.15.37.37,0,0,0,.3-.15.44.44,0,0,1,.36-.15,1,1,0,0,1,.66.42l.24.42q3.24,1.68,3.66,2.82a5.75,5.75,0,0,1,.06,1.14c0,.08,0,.22,0,.42s-.05.46-.09.78q-.12.84-2.16,2.28a6.9,6.9,0,0,1-3,1.38,3.43,3.43,0,0,1-.9-.18,3.54,3.54,0,0,0-.84-.18,4.23,4.23,0,0,0-1,.18,4.16,4.16,0,0,1-1,.18,6,6,0,0,1-2.16-.72,7.66,7.66,0,0,1-4.26-1.92,12.61,12.61,0,0,1-2.52-3.84,3.12,3.12,0,0,0-2.46-1.68,2.53,2.53,0,0,0-.75.18,2.61,2.61,0,0,1-.75.18h-.36a6.13,6.13,0,0,1-.72-.06,2.58,2.58,0,0,0-.6-.06.63.63,0,0,0-.36.06,3.72,3.72,0,0,0-2.1,1.8A4.06,4.06,0,0,0,78.87,99a13.47,13.47,0,0,0,.48,3.48,12.4,12.4,0,0,0,1.86,3.48A12.89,12.89,0,0,0,84,108.8a16.81,16.81,0,0,0,5.82,2.46l2.22.48q2.34,0,2.4-1.14l-4.74-1.44a8.49,8.49,0,0,1-4.68-3.3l.36-.3Zm8.88-19.86a8.21,8.21,0,0,1-1.56-.48l-1.62-.54A4.84,4.84,0,0,1,90,84a3.5,3.5,0,0,0-1.32-.78q-1.86,0-1.86,1.26,0,.66,1.2,1.68a3.54,3.54,0,0,0,2,1,.47.47,0,0,0,.3-.06c0-.08.08-.12.24-.12l2,.72a4.61,4.61,0,0,1,1.14,1.2,1.43,1.43,0,0,1-1.26.9q-1.62,0-4.8-1.92-5.88-3.6-5.28-6.18a1.07,1.07,0,0,1,.84-.42q1.62-.12,1.86-.78v-.6c-.32-.2-.63-.41-.93-.63s-.61-.43-.93-.63q-1.2-.9-1.2-1.74a8.27,8.27,0,0,1,.54-2.58q.66-1.8,1.38-2a10.68,10.68,0,0,1,2-.3,7.18,7.18,0,0,0,.66-1A5.36,5.36,0,0,0,87,70.1a5.6,5.6,0,0,1,2.64-1.86A10.08,10.08,0,0,1,93,67.4h4.14a2.17,2.17,0,0,0,.12.57,2.3,2.3,0,0,1,.12.63,2.53,2.53,0,0,1-.42,0l-.54,0a3.37,3.37,0,0,0-.6-.15,1.14,1.14,0,0,1-.36-.09,1.4,1.4,0,0,0-.78.39,1.49,1.49,0,0,1-.66.39,9.74,9.74,0,0,1-1.29.15l-1.29.09a4.85,4.85,0,0,0-2.7,1.2v1a1.76,1.76,0,0,0,1.14.54,5.9,5.9,0,0,0,2-.6,6.36,6.36,0,0,1,2-.6,2.8,2.8,0,0,1,.81.21,2.76,2.76,0,0,0,.87.21,5.55,5.55,0,0,0,2.28-.48,5.22,5.22,0,0,0,.69-.63,1.56,1.56,0,0,1,.93-.57.93.93,0,0,1,.36.12.91.91,0,0,0,.36.12q.9,0,.9-.84a1.42,1.42,0,0,0-.42-.9.93.93,0,0,1,.84-.36q1.14,0,1.14,1a4.55,4.55,0,0,1-.12.87,4.48,4.48,0,0,0-.12.81q0,1.08,1.38,1.08.48,0,1.2-.9c.52-.64.82-1,.9-1q.72,0,2.1,1.32a8.36,8.36,0,0,1,1.86,2,17.67,17.67,0,0,1,1.74,4.44,1.61,1.61,0,0,1-.24.78,4.53,4.53,0,0,1-.6.81,3.28,3.28,0,0,1-.78.63,1.58,1.58,0,0,1-.78.24q-1.08,0-1.38-1.92a9.72,9.72,0,0,0-1.17-.81q-.57-.33-1-.57-1-.84-1.77-1.56l-1.23-1.2a7.11,7.11,0,0,0-1.08-.48q-.66-.24-1.68-.54a11.76,11.76,0,0,0-2.88-.54q-.54,0-5,.54-.84.3-1.5.57a7.64,7.64,0,0,0-1.14.57q-.84.06-1.56.06H86.43a12.54,12.54,0,0,0-3.48,1.74v1.14q.78.78,1.14.78a1.93,1.93,0,0,0,.78-.3,1.94,1.94,0,0,1,.84-.3A1.32,1.32,0,0,1,87,77.9q.12.6.18,1.08t.12.78a6.08,6.08,0,0,0,2.58,3.18,7.86,7.86,0,0,0,2.94,1,6.15,6.15,0,0,1,2.7,1A.8.8,0,0,1,94.65,85.82Zm3,19.21.44-.1.31.09.63.17v2s0,.07,0,.1h-.15a3.52,3.52,0,0,1-.68-.14c-.28-.08-.54-.14-.77-.18l.73-.52-.77-1.34Zm-5.86-.85q3.48,1.26,3.72,1.68a3.44,3.44,0,0,1-2,.72q-.54,0-3.18-1.92a19.52,19.52,0,0,1-3.06-2.52A19.91,19.91,0,0,0,91.83,104.18Zm-9.12-1.08a1,1,0,0,1-.72-.24,1.08,1.08,0,0,1,.72-1q.48.48.48.72Zm.9-4.08a2.84,2.84,0,0,0-.84.33,2.6,2.6,0,0,1-.9.33q-.42,0-1.14-.72.06-.6,1.26-1.08a4.68,4.68,0,0,1,1.92-.54q1.32,0,2.52,3.18v.72Q84.39,99,83.61,99Zm1.58,3.83.71.77-.71-.23Z"/><path d="M110.07,94.16Q110.07,93,109,93q-1.32,0-1.32,1.14a1,1,0,0,0,.42.78,1.29,1.29,0,0,0,.84.36A1,1,0,0,0,110.07,94.16Z"/><path d="M111.57,100V98.9q-.84-.72-1.14-.72t-1.14.72V100a1.8,1.8,0,0,0,1.14.66A2.67,2.67,0,0,0,111.57,100Z"/><path d="M104.13,105.62v1.2a1.79,1.79,0,0,0,1,.36,1.75,1.75,0,0,0,.48-.09A1.76,1.76,0,0,1,106,107v-1.32q-.48-.54-.78-.54A1.82,1.82,0,0,0,104.13,105.62Z"/><path d="M102.27,90a2.29,2.29,0,0,0,1.14.66,1,1,0,0,0,.72-.3V89.24a1.38,1.38,0,0,0-1-.48,1.34,1.34,0,0,0-.9.48Z"/><path d="M124.45,71.11l-.09.57L124,74h2.36a2.9,2.9,0,0,0,1.48-.41h0V99.49l0,0-1.06.19c-1.25.22-2.73,1.2-2.73,4.64v1.46a6.22,6.22,0,0,1,0,.82,4.68,4.68,0,0,0-.83-.08,3.16,3.16,0,0,0-1.3.28V92.18l2.51,2.2.48-3.74a24.18,24.18,0,0,0,.2-3.05,25.77,25.77,0,0,0-.19-3.11l-.52-4.22-2.47,2.61V73.81l.22.57,2.14-2.9.29-.36m1.76-6.17a1.23,1.23,0,0,0-.9.25,3.27,3.27,0,0,0,.6,2l-.72.54a4.18,4.18,0,0,1-.54.35,17.46,17.46,0,0,0-2.1,2.23,3.51,3.51,0,0,1-.3-1.15,3.37,3.37,0,0,1,.66-1.72l.66-1a2.88,2.88,0,0,0,.3-.57c-.56-.59-1-.89-1.32-.89s-.8.47-1.44,1.4a5.31,5.31,0,0,0-1,1.85,19.15,19.15,0,0,0,0,2.16q.06.7.06,1.21v.76a1.33,1.33,0,0,1-.18.54,1.37,1.37,0,0,0-.18.6v33.35a11.35,11.35,0,0,0,.15,1.53,11.57,11.57,0,0,1,.15,1.53q0,.7,1.26,1.85a4.12,4.12,0,0,0,2,1.08.86.86,0,0,0,.66-.25v-1.21a6.25,6.25,0,0,1-2-2.35,1.4,1.4,0,0,1,1-.51,3.56,3.56,0,0,1,.69.1,3.62,3.62,0,0,0,.69.1q1.5,0,1.5-2.93v-1.46q0-2.48,1.08-2.67l.54.57v6.17a1.55,1.55,0,0,1-.15.48l-.33.76c-.12.28-.22.53-.3.76a1.85,1.85,0,0,0-.12.48q0,1.34,1,1.34,1.92,0,1.92-4,0-.51-.06-1.43t-.06-1.43a3.89,3.89,0,0,1,.18-1,3.94,3.94,0,0,0,.18-.89V73.6q0-8.65-3.6-8.66Zm.12,7.06.24-1.46a1.56,1.56,0,0,1,.6,1,1.18,1.18,0,0,1-.84.45ZM122.79,90.4c-.48-.42-.72-.76-.72-1a4.39,4.39,0,0,1,.21-1.05,2.85,2.85,0,0,0,.15-1.11,3.73,3.73,0,0,1,.36-2.48A23.65,23.65,0,0,1,123,87.6a22.08,22.08,0,0,1-.18,2.8Z"/><path d="M143.17,92.42V90.5h-1.56v1.2a1,1,0,0,0,.42,1Z"/><path d="M145.21,77.12a9.1,9.1,0,0,0-2.64,6.12,2.76,2.76,0,0,0,.24,1.32h1a41.72,41.72,0,0,1,2.7-5.76,12.18,12.18,0,0,1,3.9-3.24q.12-.06,1-.39l2.73-1V73l-.24-.24-1.59.54-1.17.42A10.05,10.05,0,0,0,145.21,77.12Z"/><path d="M153.85,69.92l.18.54a3.58,3.58,0,0,0,1,.48l1.14-1.5A3.5,3.5,0,0,1,159,67.88h1.14a.77.77,0,0,1,.72.84q-.9.84-1.44,1.26V71.3q3.3,1.32,4.8,1.74,1.32.66,1.38.72a1.43,1.43,0,0,0,1.26-.9,11.92,11.92,0,0,1,.63-1,4.41,4.41,0,0,1,.39-.51q.72.78,1.29,1.5a15.58,15.58,0,0,1,1,1.5q-1,1-1,1.56a4.7,4.7,0,0,0,.48,1.14,3.47,3.47,0,0,1,.54,1,1.21,1.21,0,0,1-.39.78,1.08,1.08,0,0,1-.75.42q-.78,0-2.4-1.68a26.82,26.82,0,0,0-3.48-3.06,9.71,9.71,0,0,0-5.4-1.74,5.52,5.52,0,0,0-2,.24v1.2q5.22.18,10.74,6.24a3.37,3.37,0,0,0,2.4.66,7.75,7.75,0,0,0,2-.36q1.68-.42,1.86-1.14A1.82,1.82,0,0,1,173,79c.1-.26.2-.54.3-.84s.19-.59.27-.87a2.58,2.58,0,0,0,.12-.6,4.06,4.06,0,0,0-1.14-2.64q-.9-4-6.18-6.18a20,20,0,0,0-8-1.8q-.3,0-.93.06c-.42,0-.73.06-.93.06q-.84-.06-1.32-.06h-.6q-1.68.24-1.68,1.5a4.35,4.35,0,0,0,.54,1.44A4.13,4.13,0,0,1,153.85,69.92Zm17.57,6,.1.2-.09-.14,0,0Zm-9.18-5.77.64-.59v-.84a21.89,21.89,0,0,1,2.68,1l.76.34c-.13.15-.27.34-.46.61s-.29.44-.45.72l-.28-.14-.17-.09-.19-.05c-.6-.17-1.46-.46-2.58-.89Z"/><path d="M143.23,77.24q0-1.44-1-1.44-2.16,0-2.16,1.5a1.22,1.22,0,0,0,.51,1,1.63,1.63,0,0,0,1,.42Q143.23,78.68,143.23,77.24Z"/><path d="M143.17,86l-1-.24a1.49,1.49,0,0,0-.24,1.38,1.62,1.62,0,0,0,1.2-.42Z"/><path d="M175.93,103c-.12-.4-.22-.78-.3-1.14a4.23,4.23,0,0,1-.12-.9,21.24,21.24,0,0,1,.42-3.66,21.31,21.31,0,0,0,.42-3.66,28.52,28.52,0,0,0-.48-3.06q-.66-3.12-1.44-3.72a5.26,5.26,0,0,0-3.24-1.14H168c-.88,0-1.6,0-2.16.06a1.65,1.65,0,0,0-.6.15,1.59,1.59,0,0,1-.54.15,2,2,0,0,1-.63-.18,2.07,2.07,0,0,0-.69-.18,2.33,2.33,0,0,0-.72.18,2.3,2.3,0,0,1-.66.18,6.29,6.29,0,0,1-.93-.09l-1.2-.21-1.2-.21a6.42,6.42,0,0,0-.93-.09,5.93,5.93,0,0,0-1.86.54,15.37,15.37,0,0,0-2.34,1.08,2.47,2.47,0,0,0-1,2.16,1,1,0,0,0,.24.72h1.14q1.68-2.22,2.46-2.22.54,0,1,.9l-1.14,1.14-.12,1a.87.87,0,0,1-.9.78,1.63,1.63,0,0,1-.69-.39,1.65,1.65,0,0,0-.69-.39q-.72,0-.72,1.26a2.14,2.14,0,0,0,.9,1.56,2.65,2.65,0,0,0,1.68.78,8.18,8.18,0,0,0,1-.09,8.18,8.18,0,0,1,1-.09,5,5,0,0,1,1.14.21,5,5,0,0,0,1.08.21,5.71,5.71,0,0,0,1.26-.21,5.77,5.77,0,0,1,1.26-.21,8.81,8.81,0,0,0,1.8-.06,2.69,2.69,0,0,1,1.56,1.62,3.48,3.48,0,0,0,.48.72,1.64,1.64,0,0,1,.42.78q0,2.76-3.66,4.56a14.13,14.13,0,0,1-6.12,1.56,25.44,25.44,0,0,1-4.5-.24,9,9,0,0,1-1.26-1,3.14,3.14,0,0,0-.6-.06h-.36A12.84,12.84,0,0,1,145,96.8q-.24-.66-.39-1.14t-.27-.78q-.54-1.62-1.14-1.62a.92.92,0,0,0-.66.3,2.23,2.23,0,0,1-.12.57,2.18,2.18,0,0,0-.12.57A9.92,9.92,0,0,0,143.65,99a2.81,2.81,0,0,0,.3.42c.16.2.38.46.66.78a4.84,4.84,0,0,1,.9,1.32q.24,1.8.36,3.12a23.17,23.17,0,0,0,2.82,3.24,9.35,9.35,0,0,0,1.86.54q1.62.24,2,.84a1.82,1.82,0,0,1-1.26.72,25.11,25.11,0,0,1-4.32-1.74q-4.2-1.86-4.2-3.18a3.44,3.44,0,0,1,.42-1.29,3.47,3.47,0,0,0,.42-1.23,3.9,3.9,0,0,0-.9-2q-.9-1.26-1.62-1.26a1.4,1.4,0,0,0-1,.24,3.06,3.06,0,0,1,.06.6v.54a1.15,1.15,0,0,1-.72,1,5.56,5.56,0,0,1-1.68-2.16,34.91,34.91,0,0,0-1.73-4.8h0a6.88,6.88,0,0,1,.6-1.2,5,5,0,0,0,.66-1.38,4.31,4.31,0,0,0-.72-1.32q-.9-1.32-1.62-1.32-.48,0-.54.24-.3,1.38-.42,2.16a5.36,5.36,0,0,1-.18.9,2.06,2.06,0,0,0,.36.75,2.4,2.4,0,0,1,.36.69,16,16,0,0,0,2.16,7.5q4.2,7.8,11.46,9.36a1.75,1.75,0,0,1,.66.27,1.69,1.69,0,0,0,.72.27,2.49,2.49,0,0,0,.54-.09,2.44,2.44,0,0,1,.54-.09,11.52,11.52,0,0,1,3.12.6,11.66,11.66,0,0,0,3.18.6l3.36-.6v-1a5.33,5.33,0,0,0-2.1-.78,7,7,0,0,1-2.16-1,3.13,3.13,0,0,1,2.4-1,7.61,7.61,0,0,1,1.38.18,7.59,7.59,0,0,0,1.38.18q1.62,0,4.32-2.34a3.26,3.26,0,0,1,1.74-.48q1,0,2.58,3.24l.48.48a2.29,2.29,0,0,1,.21.24l.15.18-.54.54a5.2,5.2,0,0,1-1.38-1,2.91,2.91,0,0,0-1.56-.9,13.91,13.91,0,0,0-5.7,1.5v1l.3.24h3a1,1,0,0,0,.6-.33,1,1,0,0,1,.6-.33l1.62.9a4.84,4.84,0,0,0,2.64,1.14h2.4q.48,0,1.44-1a4.32,4.32,0,0,0,1.14-1.5,16.72,16.72,0,0,0,1.14-5.22,4.29,4.29,0,0,0-.12-.9Q176.11,103.64,175.93,103Zm-34.56-.18a6.82,6.82,0,0,0-.53,1.43q-.33-.4-.65-.83l.09,0a3.23,3.23,0,0,0,1.26-1v0C141.51,102.54,141.46,102.68,141.37,102.86Zm16.38,3.06a19.27,19.27,0,0,1-2.76,1.2,7.51,7.51,0,0,0-1,.09,7.54,7.54,0,0,1-1,.09,20.06,20.06,0,0,1-3.66-2.22l-.12-.24a.79.79,0,0,1-.18-.48c0-.16.12-.34.36-.54a9.2,9.2,0,0,0,4,1.2q.3.06,1.41.18l3,.36ZM172,92.66q.84-1.26.9-1.32a3.06,3.06,0,0,0,.24-1.5l.36.24a14.2,14.2,0,0,1,.36,2.64q0,2.22-1.38,2.22a1.31,1.31,0,0,1-.81-.39,1,1,0,0,1-.45-.69A4.46,4.46,0,0,1,172,92.66Zm1.5,6.84a1.31,1.31,0,0,1-.78.48,1.17,1.17,0,0,1-.42-.78l.48-.66C173.23,99,173.47,99.34,173.47,99.5Zm-3.16.18-.26-.35-1.31-1.64c0-.12,0-.24,0-.35a3.29,3.29,0,0,0-.84-2l-.24-.33,0,0a7,7,0,0,0-.6-1q.25-.14.49-.31l0,0,0,0,1.51-1.13a6,6,0,0,0,.68-.2,2.74,2.74,0,0,0-.59,1.59,2.89,2.89,0,0,0,1.14,2.2,3.69,3.69,0,0,0,1.22.73l-.42.58-.48.66-.38.53v.65A2.63,2.63,0,0,0,170.31,99.68ZM171,87.76l.07,1-.21-.17c-.45-.36-.84-.65-1.2-.88Zm-11.45,0,.34.06a3,3,0,0,0-.59.1l-.1-.19,0,0ZM166.39,92a3.68,3.68,0,0,1-2.16.72q-5.22,0-5.82-1,.72-1.92,1.68-1.92a1.44,1.44,0,0,1,.39.09,1.4,1.4,0,0,0,.39.09,5.5,5.5,0,0,0,1.62-.78,5.51,5.51,0,0,1,1.62-.78,3.28,3.28,0,0,1,1.11.39,3.17,3.17,0,0,0,1.17.39,2.18,2.18,0,0,0,.57-.12,2.24,2.24,0,0,1,.57-.12,4.73,4.73,0,0,1,2,1.2,3.64,3.64,0,0,1-1.26.36Zm2.4,10.32a20.67,20.67,0,0,1-3.54,1.62,6,6,0,0,0-.69.45l-.51.39a13.35,13.35,0,0,1-3.6,1.32,4.15,4.15,0,0,1-1.62-.54q5-1.5,6.18-2,1.08-.84,2-1.59t1.53-1.41a1.76,1.76,0,0,1,.48,1A1.33,1.33,0,0,1,168.79,102.32Zm4.62,5.52H173a3.45,3.45,0,0,1-.36-1.44,2,2,0,0,1,.72-1.32,4.93,4.93,0,0,1,.24,1.56A4.11,4.11,0,0,1,173.41,107.84Zm-1.48-4.17a3.88,3.88,0,0,0-1.3,2.73,6.81,6.81,0,0,0-1.63-1.92l.77-.42.37-.21.25-.34a3.19,3.19,0,0,0,.57-2,2.66,2.66,0,0,0-.06-.56,4.09,4.09,0,0,0,.37.42l.59.58h.83a2.49,2.49,0,0,0,.89-.17l0,.18Zm2-6.73-.25-.25.32-.15Z"/><path d="M135.19,86.78a8.39,8.39,0,0,0,1.26-3.12q.54-.54.93-1c.26-.28.47-.52.63-.72a8.22,8.22,0,0,0-.48-2.64,6.49,6.49,0,0,1,1.26-2.16,19.74,19.74,0,0,1,2.16-3.42q1.92-2.46,3.36-2.46a9.05,9.05,0,0,1,1.68.84,9.09,9.09,0,0,0,1.68.84,1.79,1.79,0,0,0,.54-.06,2.11,2.11,0,0,0,.78-1.68l-.12-1.62a9.92,9.92,0,0,1,2-1.56v-1l-.24-.24h-1a9.41,9.41,0,0,0-2,.54,9.27,9.27,0,0,0-2.94,1.26A4.94,4.94,0,0,0,142,70q-1.44,1.5-2.7,2.88T137,75.62a4.52,4.52,0,0,0-.78,2.22,4.88,4.88,0,0,1-.24,1.5c-.4.6-.62.94-.66,1,0,.28-.07.51-.09.69a4.28,4.28,0,0,0,0,.51A17.32,17.32,0,0,0,134,85.28Q134,86.06,135.19,86.78Zm11.69-17h0l0,.6-.65-.36Z"/><path d="M144.79,73.58l-.9-.24q-.42.24-.24,1.2h.9Z"/><path d="M212.91,106.4q1.38,0,2-2,.18-.66.36-1.26c.12-.4.22-.8.3-1.2a5.64,5.64,0,0,1,.24,1q.12.66.24,1.8a5.54,5.54,0,0,0,.72,2.52h.9a2.09,2.09,0,0,0,.48-.66V69.08a3.07,3.07,0,0,0-.66-1.89,2,2,0,0,0-1.62-.87,1.24,1.24,0,0,0-1.2.72l.75,1.2a7.55,7.55,0,0,0,.63.9,3.44,3.44,0,0,1,.06,1.5q-.06.48-.09.81c0,.22,0,.41,0,.57a1.81,1.81,0,0,0,.18.66l.24.42a.8.8,0,0,1-.24.9s0,.09.15.15a.35.35,0,0,1,.15.33,34.43,34.43,0,0,1-.72,5.76c.08.16.16.31.24.45s.16.27.24.39a2.49,2.49,0,0,1-.09,1,4.07,4.07,0,0,0-.15.84,7.14,7.14,0,0,0,.18,1.35,7.22,7.22,0,0,1,.18,1.35,1.71,1.71,0,0,1-.6,1.32l-.3-.36q-.48-8.52-.36-10.8a9,9,0,0,1,.12-1.17,9.3,9.3,0,0,0,.12-1.29q0-3.66-1.86-3.66a1.61,1.61,0,0,0-.78.3,1.86,1.86,0,0,1-.6.3c-.32,0-.5-.08-.54-.24l-.06-.3a1,1,0,0,1-.06-.42q0-.72,1-1.14a8.52,8.52,0,0,0,1.68-.78v-.78a2.91,2.91,0,0,0-1.68-.42q-2.34,0-2.82,1.92c0,.56,0,1,0,1.44s0,.76.09,1.08l-.6,1.86q0,1-.18,5.88a2.91,2.91,0,0,1,.06.66v1.08q.06,1.68.06,3.12v2.7q0,3.42.06,3.6a1,1,0,0,1-1,.9q-1.2,0-5.4-6.12-2.1-3-3.48-5t-2.1-3q-1.26-1.56-2.16-2.61T193.53,72q-2.82-3.42-3.78-4.68a3.76,3.76,0,0,0-1.92-.84l-1.5-.21a8.52,8.52,0,0,0-1.14-.09,3,3,0,0,0-3.3,2.34,17.47,17.47,0,0,0-.18,4.5c0,.24,0,.55-.06.93s-.08.78-.12,1.2-.08.81-.12,1.17a8.16,8.16,0,0,0-.06.9v27.66a15.43,15.43,0,0,0,.18,1.77l.48,3.45a4.45,4.45,0,0,0,1.86,1.17,6.5,6.5,0,0,0,2.28.51,4.12,4.12,0,0,0,1.08-.06,8,8,0,0,0,2.64-1.44c.24-.4.45-.76.63-1.08l.45-.78a7.78,7.78,0,0,0,0-1.14c0-.32-.05-.62-.09-.9a7.35,7.35,0,0,0,.24-2.16q0-.72-.18-2.82-.06-.9-.09-1.62a8.3,8.3,0,0,1,0-1.26,1.81,1.81,0,0,1,.15-.57,1.87,1.87,0,0,0,.15-.63V87.14q0-.12.54-.66a10.81,10.81,0,0,1,1.35,1.35q.63.75,1.23,1.59,1.26,2,1.5,2.4,1.74,2.1,2.94,3.6l1.86,2.34q.6.9,1,1.56l.6,1.08,5.7,7.14q3.06,3.84,6.66,3.84,3.18,0,3.18-2.34a1.08,1.08,0,0,0-.24-.78h-.9a2.84,2.84,0,0,1-2.16,1.26A5.15,5.15,0,0,1,211,108a6.27,6.27,0,0,1-2.16-3.24l.3-.36Q212.13,106.4,212.91,106.4Zm3.45-8.94q.09,1.26.09,1.92a23.21,23.21,0,0,1-.72,2.34,27.76,27.76,0,0,1-.72-6q0-.42,1-1.44Q216.27,96.2,216.36,97.46Zm-1.54-6.11.19-.12.2-.78a3.08,3.08,0,0,0,.08-1l.24.28.6-.54v2.12l-1.29,1.29a4.47,4.47,0,0,1-.05-.58C214.79,91.74,214.8,91.51,214.82,91.35Zm-2.69,11.57q-1.2-.48-1.2-1.14a.91.91,0,0,1,.24-.54,1.89,1.89,0,0,1,1.38.72A1.32,1.32,0,0,1,212.13,102.92Zm-.86-30.8a3.18,3.18,0,0,0,.8.1,2.45,2.45,0,0,0,1.13-.3,7.25,7.25,0,0,1,.11,1.36h0a3,3,0,0,0-1.08-.47l-1.11-.22Zm-2.08,16.64a1,1,0,0,1-.06.42Zm-.13,3.46,0,.51-.35-.41Zm-24.41,16.46a.78.78,0,0,1,0,.24.74.74,0,0,1,0-.24q-1.2-.48-1.2-1.32A1.9,1.9,0,0,1,184,106q.12,0,.78.66Q184.71,108.2,184.65,108.68Zm3.66.27a9.29,9.29,0,0,1-1.6.79h-.29a2.92,2.92,0,0,0,.22-.82c0-.36.11-1.05.19-2.06l0-.27q.19.22.41.45l1.37,1.37Zm.36-3.33a2.14,2.14,0,0,1-.78-1.38,2.1,2.1,0,0,1,.15-.66,2.1,2.1,0,0,0,.15-.6l.25,0c.48,0,.72.33.72,1A4.54,4.54,0,0,1,188.67,105.62Zm1.65-20.56a3,3,0,0,0-1.13,2.08v10l0,0a3.76,3.76,0,0,0-.28,1.14,10.41,10.41,0,0,0,0,1.49c0,.36,0,.74.06,1.17a2.78,2.78,0,0,0-.49,0,3.34,3.34,0,0,0-.62.06l-1.63.31v1.49l0,.09a3.91,3.91,0,0,0-.27,1.34,3.06,3.06,0,0,0,.11.8,2.75,2.75,0,0,0-1.95-1h-.7V77.18a6.26,6.26,0,0,1,0-.68c0-.37.08-.77.12-1.2s.08-.8.12-1.18.06-.7.07-1l.3.16a2.38,2.38,0,0,1,.81,1l.15.28-.46.46V77.3a2.68,2.68,0,0,0,.52,1.5l.41.6.25.37a16.66,16.66,0,0,0,.58,2.7l.57,2,2-.64,1.06-.35,0,0,.15.37.28.28.45.45Zm12.09,11.32q-1.62-2.34-2.58-4l-2.7-3.12q-1.2-1.38-2.16-2.4-.3-.48-.54-.93a7.81,7.81,0,0,1-.36-.75q-.78-.84-1.35-1.41l-1-1-.21-.54a5.11,5.11,0,0,0-.21-.48,1.13,1.13,0,0,0-1-.6,9.25,9.25,0,0,1-2.1.78,13.11,13.11,0,0,1-.54-2.7.88.88,0,0,0-.18-.39l-.39-.57-.39-.57a.88.88,0,0,1-.18-.39V75.86a13.85,13.85,0,0,1,1.92-.18q1.62-.12,2-.84a3.18,3.18,0,0,0-.6-2.16q-.84-1.38-1.62-1.38t-1.62,2a4.27,4.27,0,0,0-1.62-1.8q-1.74-.9-1.74-1.8a1.78,1.78,0,0,1,.84-1.32,2.6,2.6,0,0,1,1.56-.66q2.28,0,6.42,4.56t4.14,6.9q0,.84-1.08.84-.42,0-1.8-1.38t-1.86-1.44q-.84,0-.84.78a5.68,5.68,0,0,0,.6,2.28,4.42,4.42,0,0,0,1.38,1.86q1,.66,1.59,1.11t.69.57q.12.48.18.81c0,.22.08.43.12.63q.84,1,1.56,1.68l1.2,1.2q.66,1.14,1.14,2t.84,1.68l.72.72a7.15,7.15,0,0,0,.6.54L202,94.7q.36.66.66,1.14A2.65,2.65,0,0,1,202.41,96.38Zm5.31,6.5q-1,0-2.73-2.66l.24-1a5.3,5.3,0,0,1,1.56,1.68q.24.48,1.08,2Zm-3.08-6.48.15-.44.18.15.32.73Zm2.16-1.1q-.24-.78-2.28-1.86a8.09,8.09,0,0,1-2.1-1.44,7.29,7.29,0,0,0-2.76-5q-1.2-1.32-2-2.37t-1.44-1.89q.6-1.44,1.38-1.44,1.32,0,4,5,1.92,2.64,3.42,4.56t2.64,3.24a8.41,8.41,0,0,0,.66,1.32,1.57,1.57,0,0,0,1.32.54,1.68,1.68,0,0,0,1.32-.78q.18-2.64.27-4.2a15.55,15.55,0,0,0,0-2.1c0-.76-.06-1.7-.06-2.82s0-2.5.12-4q.18-4.68.18-6.78l.42-.48q.6.12,1.44,1.44l-.42,1.14a6.55,6.55,0,0,0,.18,1c.08.3.16.57.24.81a2.73,2.73,0,0,1,0,.75c0,.34-.07.79-.15,1.35s-.15,1.15-.21,1.53a6.29,6.29,0,0,0-.09.75,16.68,16.68,0,0,0,.42,3.9c0,.28-.07.53-.09.75s0,.41,0,.57a1.49,1.49,0,0,0,.12.66,1.22,1.22,0,0,1,0,.54q-.48.3-.48,2.1a14.67,14.67,0,0,0,.48,2.94,11.78,11.78,0,0,1,.54,2.82q0,.66-1.44,1.38a5.88,5.88,0,0,1-2.16.66Q208.77,99.86,206.79,95.3Z"/><path d="M126.64,59.9a6.88,6.88,0,0,1-3.78,1,2.81,2.81,0,0,1-.93-.18,3.67,3.67,0,0,1-1-.51,4.41,4.41,0,0,1-.78-.72,2.31,2.31,0,0,1-.45-.75,17.56,17.56,0,0,1-.66-4.8,3.41,3.41,0,0,1,1-1.62q1-1.2,1.44-1.2h1.38a.9.9,0,0,1,.24.66,11.43,11.43,0,0,1-.66,1L121,54.86v.66a3.93,3.93,0,0,0,1,2.16,2.56,2.56,0,0,0,1.86,1.26q1.14,0,2.52-2.34t1.68-2.28a7.31,7.31,0,0,1,.42,2.28A3.65,3.65,0,0,1,126.64,59.9Z"/><path d="M224.34,56.8H223.2q-.42,1.5-1.14,1.62c-1.84.34-22.36.51-35.52.51-5.47,0-9.67,0-10.72-.09l-3.24-.18q-2.88-.18-3.36-.18l-2.76.18q-2.34.18-2.82.18c-4,0-26,0-25.88.06q-4.08-.48-4.08-2.82a2.8,2.8,0,0,1,.39-1.32q.39-.72.93-.72a4.37,4.37,0,0,1,.54,1.92q.18,1.26,1.26,1.26a9.49,9.49,0,0,0,2.4-.48,9.51,9.51,0,0,1,2.46-.42c.12,0,20.32.08,20.6.24a1.52,1.52,0,0,0,.72.24,1.86,1.86,0,0,0,.72-.24,2.09,2.09,0,0,1,.6-.24,5,5,0,0,1,1.38.33,5,5,0,0,0,1.38.33,4.15,4.15,0,0,0,1.29-.33,4.12,4.12,0,0,1,1.29-.33,3.4,3.4,0,0,1,1.14.33,3.44,3.44,0,0,0,1.08.33h44.62a5,5,0,0,0,1.44-.33,5,5,0,0,1,1.44-.33,1.49,1.49,0,0,1,.6.24,1.49,1.49,0,0,0,.66.24q1,0,1-.9c0-.48,0-.85,0-1.11a2.68,2.68,0,0,0-.09-.57,1,1,0,0,1,.78-.48,2.66,2.66,0,0,0,1.08-.18v-1.2a5.36,5.36,0,0,0-2.7-.72,2.26,2.26,0,0,0-.84.24,2.29,2.29,0,0,1-.78.24c-.28,0-.64,0-1.08-.06l-1.35-.15-1.35-.18a8.39,8.39,0,0,0-1.08-.09c-.24,0-37.53,0-37.87.09l-1.08.18-1.08.15a7.87,7.87,0,0,1-.87.06,5.08,5.08,0,0,1-.87-.09c-.34-.06-.71-.14-1.11-.24s-.77-.18-1.11-.24a5.08,5.08,0,0,0-.87-.09H137a5.49,5.49,0,0,0-3.36,1,3.65,3.65,0,0,0-1.56,3q0,4,3.36,5a25.84,25.84,0,0,0,6.18.48h74.82a32.33,32.33,0,0,1,3.78-.36,7.36,7.36,0,0,0,2.88-.54,3.15,3.15,0,0,0,1.44-2.4A1.28,1.28,0,0,0,224.34,56.8ZM137,53.46h32.24a3.14,3.14,0,0,1,.52.06q.44.08,1,.21c.46.11.87.2,1.24.27a7,7,0,0,0,1.22.12,9.7,9.7,0,0,0,1.1-.07l1.16-.16,1-.16c2.35-.05,36-.08,37.65-.08a6.37,6.37,0,0,1,.81.07l1.36.18c.49.06,1,.12,1.43.16s.92.07,1.26.07a2.68,2.68,0,0,0,.46,0,2,2,0,0,0,0,.24h-.1a6.6,6.6,0,0,0-2.09.44,4.72,4.72,0,0,1-.79.22H172l-.45-.17a5,5,0,0,0-1.92-.49,5.69,5.69,0,0,0-2,.46A4.84,4.84,0,0,1,167,55a6.07,6.07,0,0,1-.72-.21,6.43,6.43,0,0,0-2-.44,3,3,0,0,0-1.32.37c-.58-.22-2-.24-11.06-.31-5.15,0-10.23-.06-10.26-.06a11.4,11.4,0,0,0-3,.5c-.53.16-.92.25-1.2.31a7.25,7.25,0,0,0-.46-1.67Z"/><path d="M115.22,56.8h-1.14q-.42,1.5-1.14,1.62c-1.41.26-20.58.42-38.41.48h0c-15.08.05-29.2,0-30.83-.06l-3.24-.18q-2.88-.18-3.36-.18l-2.76.18q-2.34.18-2.82.18c-4,0-26,0-25.88.06q-4.08-.48-4.08-2.82A2.8,2.8,0,0,1,2,54.76q.39-.72.93-.72A4.37,4.37,0,0,1,3.42,56q.18,1.26,1.26,1.26a9.49,9.49,0,0,0,2.4-.48,9.51,9.51,0,0,1,2.46-.42c.12,0,20.32.08,20.6.24a1.52,1.52,0,0,0,.72.24,1.86,1.86,0,0,0,.72-.24,2.09,2.09,0,0,1,.6-.24,5,5,0,0,1,1.38.33,5,5,0,0,0,1.38.33,4.15,4.15,0,0,0,1.29-.33,4.12,4.12,0,0,1,1.29-.33,3.4,3.4,0,0,1,1.14.33,3.44,3.44,0,0,0,1.08.33h67.62a5,5,0,0,0,1.44-.33,5,5,0,0,1,1.44-.33,1.49,1.49,0,0,1,.6.24,1.49,1.49,0,0,0,.66.24q1,0,1-.9c0-.48,0-.85,0-1.11a2.68,2.68,0,0,0-.09-.57,1,1,0,0,1,.78-.48,2.66,2.66,0,0,0,1.08-.18v-1.2a5.36,5.36,0,0,0-2.7-.72,2.26,2.26,0,0,0-.84.24,2.29,2.29,0,0,1-.78.24c-.28,0-.64,0-1.08-.06l-1.35-.15-1.35-.18a8.39,8.39,0,0,0-1.08-.09l-30.49,0h0c-15.11,0-30.21,0-30.38.07l-1.08.18L42,52.06a7.87,7.87,0,0,1-.87.06,5.08,5.08,0,0,1-.87-.09c-.34-.06-.71-.14-1.11-.24s-.77-.18-1.11-.24a5.08,5.08,0,0,0-.87-.09H4.92a5.49,5.49,0,0,0-3.36,1,3.65,3.65,0,0,0-1.56,3q0,4,3.36,5A25.84,25.84,0,0,0,9.54,61h97.82a32.33,32.33,0,0,1,3.78-.36A7.36,7.36,0,0,0,114,60.1a3.15,3.15,0,0,0,1.44-2.4A1.28,1.28,0,0,0,115.22,56.8ZM76.53,53.66l28.49,0a6.37,6.37,0,0,1,.81.07l1.36.18c.49.06,1,.12,1.43.16s.92.07,1.26.07l.32,0,.07.22h0a6.6,6.6,0,0,0-2.09.44,4.71,4.71,0,0,1-.79.22H76.53Z"/></g></g></svg>